<svg width="539" height="246" viewBox="0 0 539 246" fill="none" xmlns="http://www.w3.org/2000/svg">
<!--  <rect width="539" height="246" rx="18" fill="#212121"/>-->
  <line x1="46" y1="37" x2="110" y2="37" stroke="#5B5B5B" stroke-width="12" stroke-linecap="round"/>
  <line x1="137" y1="37" x2="169" y2="37" stroke="#E0E0E0" stroke-width="12" stroke-linecap="round"/>
  <line x1="46" y1="59" x2="78" y2="59" stroke="#E0E0E0" stroke-width="12" stroke-linecap="round"/>
  <line x1="46" y1="207" x2="78" y2="207" stroke="#E0E0E0" stroke-width="12" stroke-linecap="round"/>
  <line x1="90" y1="85" x2="169" y2="85" stroke="#404040" stroke-width="12" stroke-linecap="round"/>
  <line x1="192" y1="85" x2="244" y2="85" stroke="#E0E0E0" stroke-width="12" stroke-linecap="round"/>
  <line x1="270" y1="85" x2="361" y2="85" stroke="#E0E0E0" stroke-width="12" stroke-linecap="round"/>
  <line x1="91" y1="161" x2="196" y2="161" stroke="#797979" stroke-width="12" stroke-linecap="round"/>
  <line x1="221" y1="161" x2="273" y2="161" stroke="#E0E0E0" stroke-width="12" stroke-linecap="round"/>
  <line x1="296" y1="161" x2="319" y2="161" stroke="#555555" stroke-width="12" stroke-linecap="round"/>
  <line x1="90" y1="110" x2="128" y2="110" stroke="#E0E0E0" stroke-width="12" stroke-linecap="round"/>
  <line x1="156" y1="110" x2="175" y2="110" stroke="#E0E0E0" stroke-width="12" stroke-linecap="round"/>
  <line x1="91" y1="184" x2="110" y2="184" stroke="#E0E0E0" stroke-width="12" stroke-linecap="round"/>
  <line x1="204" y1="110" x2="263" y2="110" stroke="#838383" stroke-width="12" stroke-linecap="round"/>
  <line x1="197" y1="37" x2="277" y2="37" stroke="#CBCBCB" stroke-width="12" stroke-linecap="round"/>
  <line x1="304" y1="37" x2="495" y2="37" stroke="#E0E0E0" stroke-width="12" stroke-linecap="round"/>
  <line x1="90" y1="136" x2="235" y2="136" stroke="#E0E0E0" stroke-width="12" stroke-linecap="round"/>
</svg>
