<svg width="460" height="234" viewBox="0 0 460 234" fill="none" xmlns="http://www.w3.org/2000/svg">
  <path d="M63 15.12L16.0776 31.8528L23.2344 93.8952L63 115.92L102.766 93.8952L109.922 31.8528L63 15.12Z" fill="#3A3A3A"/>
  <path d="M63 15.12V26.3088V26.2584V77.3136V115.92L102.766 93.8952L109.922 31.8528L63 15.12Z" fill="#333333"/>
  <path d="M63 26.2584L33.6672 92.0304H44.604L50.5008 77.3136H75.3984L81.2952 92.0304H92.232L63 26.2584ZM71.568 68.2416H54.432L63 47.628L71.568 68.2416Z" fill="white"/>
  <path d="M234.168 66.7721C234.168 60.3299 226.095 54.2248 213.717 50.4388C216.573 37.832 215.304 27.8021 209.71 24.591C208.421 23.8377 206.913 23.4809 205.267 23.4809V27.9012C206.179 27.9012 206.913 28.0796 207.528 28.4166C210.226 29.9627 211.396 35.8498 210.484 43.4218C210.265 45.2851 209.908 47.2474 209.472 49.2495C205.584 48.298 201.339 47.5646 196.876 47.0889C194.198 43.4218 191.421 40.0917 188.624 37.1779C195.091 31.1719 201.161 27.8814 205.287 27.8814V23.4611C199.832 23.4611 192.691 27.3462 185.47 34.0857C178.25 27.3859 171.109 23.5404 165.654 23.5404V27.9607C169.76 27.9607 175.85 31.2313 182.316 37.1977C179.539 40.1115 176.762 43.4218 174.124 47.0889C169.641 47.5646 165.396 48.298 161.508 49.2693C161.052 47.2871 160.715 45.3644 160.477 43.5209C159.545 35.9489 160.695 30.0618 163.373 28.4959C163.968 28.1391 164.742 27.9805 165.654 27.9805V23.5602C163.988 23.5602 162.48 23.917 161.171 24.6703C155.597 27.8814 154.347 37.8915 157.224 50.4586C144.886 54.2644 136.852 60.3497 136.852 66.7721C136.852 73.2142 144.925 79.3193 157.303 83.1053C154.447 95.7121 155.716 105.742 161.31 108.953C162.599 109.706 164.107 110.063 165.773 110.063C171.228 110.063 178.369 106.178 185.589 99.4386C192.81 106.138 199.951 109.984 205.406 109.984C207.072 109.984 208.579 109.627 209.889 108.874C215.462 105.663 216.712 95.6526 213.836 83.0855C226.134 79.2995 234.168 73.1944 234.168 66.7721ZM208.341 53.5508C207.607 56.1079 206.695 58.7442 205.663 61.3805C204.85 59.7947 203.997 58.209 203.065 56.6232C202.152 55.0375 201.18 53.4914 200.209 51.9849C203.025 52.4012 205.743 52.9165 208.341 53.5508ZM199.256 74.6612C197.709 77.3371 196.122 79.8744 194.476 82.2332C191.52 82.4909 188.525 82.6296 185.51 82.6296C182.515 82.6296 179.519 82.4909 176.584 82.253C174.937 79.8942 173.331 77.3768 171.783 74.7207C170.276 72.124 168.907 69.4877 167.657 66.8315C168.887 64.1754 170.276 61.5192 171.764 58.9226C173.311 56.2466 174.898 53.7094 176.544 51.3506C179.5 51.0929 182.495 50.9541 185.51 50.9541C188.505 50.9541 191.5 51.0929 194.436 51.3308C196.083 53.6896 197.689 56.207 199.237 58.8631C200.744 61.4598 202.113 64.0961 203.362 66.7522C202.113 69.4084 200.744 72.0645 199.256 74.6612ZM205.663 72.0843C206.735 74.7405 207.647 77.3966 208.401 79.9735C205.802 80.6078 203.065 81.143 200.228 81.5592C201.2 80.0329 202.172 78.467 203.085 76.8614C203.997 75.2757 204.85 73.6701 205.663 72.0843ZM185.55 93.2343C183.705 91.3314 181.86 89.2105 180.035 86.8913C181.82 86.9706 183.645 87.0301 185.49 87.0301C187.355 87.0301 189.199 86.9904 191.005 86.8913C189.219 89.2105 187.375 91.3314 185.55 93.2343ZM170.792 81.5592C167.975 81.143 165.257 80.6276 162.659 79.9933C163.393 77.4363 164.305 74.7999 165.337 72.1636C166.15 73.7494 167.003 75.3351 167.935 76.9209C168.867 78.5066 169.82 80.0528 170.792 81.5592ZM185.45 40.3098C187.295 42.2127 189.14 44.3336 190.965 46.6528C189.18 46.5735 187.355 46.514 185.51 46.514C183.645 46.514 181.801 46.5537 179.996 46.6528C181.781 44.3336 183.626 42.2127 185.45 40.3098ZM170.772 51.9849C169.8 53.5112 168.828 55.0771 167.915 56.6827C167.003 58.2684 166.15 59.8542 165.337 61.44C164.266 58.7838 163.353 56.1277 162.599 53.5508C165.198 52.9363 167.935 52.4012 170.772 51.9849ZM152.82 76.802C145.798 73.8088 141.256 69.8841 141.256 66.7721C141.256 63.66 145.798 59.7154 152.82 56.7422C154.526 56.0087 156.391 55.3546 158.315 54.7401C159.445 58.6252 160.933 62.6689 162.778 66.8117C160.953 70.9347 159.485 74.9585 158.374 78.8238C156.41 78.2093 154.546 77.5354 152.82 76.802ZM163.492 105.128C160.794 103.581 159.624 97.6943 160.536 90.1223C160.755 88.259 161.112 86.2967 161.548 84.2946C165.436 85.2461 169.681 85.9795 174.144 86.4552C176.822 90.1223 179.599 93.4524 182.396 96.3662C175.929 102.372 169.859 105.663 165.733 105.663C164.841 105.643 164.087 105.464 163.492 105.128ZM210.543 90.0232C211.475 97.5952 210.325 103.482 207.647 105.048C207.052 105.405 206.278 105.564 205.366 105.564C201.26 105.564 195.17 102.293 188.704 96.3266C191.481 93.4127 194.258 90.1025 196.896 86.4354C201.379 85.9597 205.624 85.2263 209.512 84.255C209.968 86.257 210.325 88.1797 210.543 90.0232ZM218.18 76.802C216.474 77.5354 214.609 78.1895 212.685 78.804C211.555 74.9189 210.067 70.8752 208.222 66.7324C210.047 62.6094 211.515 58.5856 212.626 54.7203C214.59 55.3348 216.454 56.0087 218.2 56.7422C225.222 59.7353 229.764 63.66 229.764 66.7721C229.744 69.8841 225.202 73.8287 218.18 76.802Z" fill="#515151"/>
  <path d="M185.49 75.8307C190.497 75.8307 194.555 71.775 194.555 66.7721C194.555 61.7691 190.497 57.7134 185.49 57.7134C180.484 57.7134 176.425 61.7691 176.425 66.7721C176.425 71.775 180.484 75.8307 185.49 75.8307Z" fill="#515151"/>
  <g clip-path="url(#clip0)">
    <path d="M307.236 27.0004L296.497 45.7062L285.759 27.0004H249.998L296.497 108L342.996 27.0004H307.236Z" fill="#828282"/>
    <path d="M307.236 27.0004L296.497 45.7061L285.759 27.0004H268.598L296.497 75.5989L324.397 27.0004H307.236Z" fill="#373737"/>
  </g>
  <path d="M442.201 38.9059C433.868 26.9341 417.278 23.4264 405.352 30.9755L384.328 44.3962C378.594 47.9801 374.619 53.8516 373.472 60.4857C372.478 66.0522 373.319 71.7712 375.995 76.7277C374.16 79.4729 372.937 82.523 372.401 85.7257C371.178 92.5122 372.784 99.5276 376.759 105.094C385.169 117.066 401.682 120.574 413.608 113.024L434.632 99.6801C440.366 96.0961 444.342 90.2246 445.488 83.5905C446.482 78.024 445.641 72.305 442.965 67.3485C444.8 64.6034 446.023 61.5533 446.559 58.3506C447.858 51.4878 446.253 44.4724 442.201 38.9059Z" fill="#565656"/>
  <path d="M403.188 106.464C396.253 108.229 389.006 105.543 384.954 99.7858C382.46 96.4085 381.525 92.1869 382.226 88.0421C382.382 87.3513 382.538 86.7372 382.694 86.0464L383.083 84.8183L384.174 85.5859C386.746 87.428 389.551 88.8097 392.59 89.7307L393.369 89.961L393.292 90.7286C393.214 91.8032 393.525 92.9545 394.149 93.8756C395.396 95.641 397.577 96.4853 399.681 95.948C400.149 95.7945 400.617 95.641 401.006 95.4107L422.358 81.9783C423.449 81.2875 424.15 80.2897 424.384 79.0616C424.617 77.8335 424.306 76.5286 423.604 75.5308C422.358 73.7654 420.176 72.9978 418.072 73.5351C417.604 73.6886 417.137 73.8422 416.747 74.0724L408.565 79.2151C407.24 80.0594 405.76 80.6735 404.201 81.0573C397.266 82.8227 390.019 80.1362 385.967 74.3794C383.551 71.0022 382.538 66.7806 383.317 62.6357C384.018 58.6444 386.512 55.0368 390.019 52.8876L411.448 39.4553C412.773 38.6109 414.253 37.9969 415.812 37.5364C422.747 35.771 429.994 38.4574 434.046 44.2142C436.54 47.5914 437.475 51.8131 436.774 55.9579C436.618 56.6487 436.462 57.2628 436.228 57.9536L435.839 59.1817L434.748 58.4141C432.176 56.572 429.371 55.1903 426.332 54.2693L425.553 54.039L425.631 53.2714C425.708 52.1968 425.397 51.0455 424.773 50.1244C423.527 48.359 421.345 47.5914 419.241 48.1287C418.773 48.2823 418.306 48.4358 417.916 48.666L396.564 62.0984C395.473 62.7892 394.772 63.7871 394.538 65.0152C394.305 66.2433 394.616 67.5481 395.318 68.546C396.564 70.3114 398.746 71.0789 400.85 70.5416C401.318 70.3881 401.785 70.2346 402.175 70.0043L410.357 64.8616C411.682 64.0173 413.162 63.4033 414.721 62.9427C421.656 61.1773 428.903 63.8638 432.955 69.6206C435.449 72.9978 436.384 77.2194 435.683 81.3643C434.982 85.3556 432.488 88.9632 428.981 91.1124L407.552 104.545C406.227 105.389 404.747 106.003 403.188 106.464Z" fill="white"/>
  <g clip-path="url(#clip1)">
    <path d="M252.157 168H260.579V207.126C256.258 207.949 253.086 208.278 249.641 208.278C239.359 208.278 234 203.613 234 194.666C234 186.048 239.688 180.45 248.492 180.45C249.86 180.45 250.899 180.56 252.157 180.889V168ZM252.157 187.695C251.172 187.366 250.352 187.256 249.313 187.256C245.047 187.256 242.586 189.891 242.586 194.501C242.586 199.002 244.938 201.472 249.258 201.472C250.188 201.472 250.954 201.417 252.157 201.253V187.695Z" fill="#383838"/>
    <path d="M273.977 181.054V200.648C273.977 207.4 273.485 210.638 272.008 213.437C270.641 216.127 268.836 217.828 265.117 219.695L257.297 215.962C261.016 214.206 262.82 212.67 263.968 210.309C265.172 207.894 265.555 205.094 265.555 197.739V181.054H273.977ZM265.555 168.045H273.977V176.717H265.555V168.045Z" fill="#383838"/>
    <path d="M279.064 182.975C282.783 181.219 286.337 180.45 290.22 180.45C294.541 180.45 297.384 181.602 298.643 183.853C299.353 185.115 299.572 186.762 299.572 190.275V207.455C295.798 208.003 291.04 208.388 287.541 208.388C280.486 208.388 277.313 205.917 277.313 200.429C277.313 194.501 281.525 191.756 291.861 190.878V189.012C291.861 187.475 291.095 186.927 288.962 186.927C285.845 186.927 282.345 187.805 279.063 189.506V182.975H279.064ZM292.244 196.422C286.665 196.971 284.861 197.85 284.861 200.045C284.861 201.691 285.9 202.46 288.197 202.46C289.455 202.46 290.603 202.35 292.244 202.076V196.422Z" fill="#383838"/>
    <path d="M303.674 182.371C308.65 181.054 312.752 180.45 316.908 180.45C321.229 180.45 324.346 181.438 326.206 183.359C327.956 185.17 328.502 187.146 328.502 191.373V207.949H320.08V191.702C320.08 188.464 318.987 187.256 315.979 187.256C314.831 187.256 313.791 187.366 312.096 187.86V207.949H303.674V182.371Z" fill="#383838"/>
    <path d="M331.776 212.56C334.73 214.096 337.683 214.809 340.8 214.809C346.323 214.809 348.675 212.56 348.675 207.18C348.675 207.125 348.675 207.07 348.675 207.016C347.034 207.838 345.393 208.168 343.206 208.168C335.823 208.168 331.119 203.283 331.119 195.544C331.119 185.938 338.065 180.505 350.37 180.505C353.98 180.505 357.316 180.889 361.363 181.712L358.479 187.809C356.236 187.37 358.299 187.75 356.605 187.585V188.464L356.714 192.031L356.768 196.642C356.823 197.794 356.823 198.947 356.878 200.1C356.878 201.143 356.878 201.637 356.878 202.405C356.878 209.651 356.276 213.054 354.472 215.853C351.847 219.97 347.307 222 340.854 222C337.573 222 334.73 221.506 331.776 220.353V212.56H331.776ZM348.511 187.311C348.402 187.311 348.293 187.311 348.238 187.311H347.636C345.996 187.256 344.082 187.695 342.769 188.518C340.746 189.671 339.706 191.757 339.706 194.72C339.706 198.947 341.785 201.362 345.503 201.362C346.652 201.362 347.582 201.142 348.675 200.813V200.209V197.904C348.675 196.917 348.621 195.818 348.621 194.666L348.567 190.769L348.511 187.97V187.311H348.511Z" fill="#383838"/>
    <path d="M374.437 180.34C382.859 180.34 388 185.665 388 194.282C388 203.119 382.641 208.663 374.109 208.663C365.687 208.663 360.491 203.338 360.491 194.776C360.492 185.883 365.851 180.34 374.437 180.34ZM374.272 201.856C377.499 201.856 379.414 199.166 379.414 194.501C379.414 189.891 377.554 187.146 374.328 187.146C370.992 187.146 369.077 189.836 369.077 194.501C369.077 199.167 370.992 201.856 374.272 201.856Z" fill="#383838"/>
  </g>
  <path fill-rule="evenodd" clip-rule="evenodd" d="M194.342 163.237C194.374 163.356 194.391 163.479 194.391 163.603V182.804C194.391 183.05 194.326 183.292 194.201 183.505C194.077 183.719 193.899 183.896 193.684 184.018L177.476 193.297V211.687C177.476 212.188 177.208 212.65 176.772 212.902L142.939 232.267C142.862 232.311 142.777 232.339 142.693 232.369C142.661 232.379 142.631 232.399 142.598 232.407C142.361 232.469 142.113 232.469 141.876 232.407C141.837 232.397 141.802 232.376 141.765 232.362C141.688 232.334 141.607 232.309 141.533 232.267L107.708 212.902C107.493 212.779 107.314 212.602 107.19 212.389C107.066 212.176 107 211.934 107 211.687V154.084C107 153.958 107.018 153.836 107.049 153.717C107.06 153.677 107.084 153.64 107.099 153.6C107.125 153.526 107.15 153.451 107.188 153.383C107.215 153.337 107.253 153.3 107.285 153.258C107.326 153.202 107.363 153.145 107.41 153.096C107.451 153.055 107.503 153.026 107.549 152.991C107.6 152.949 107.646 152.903 107.704 152.87H107.706L124.619 143.187C124.834 143.065 125.076 143 125.323 143C125.57 143 125.813 143.065 126.027 143.187L142.941 152.87H142.944C143.001 152.905 143.048 152.949 143.099 152.989C143.145 153.024 143.196 153.055 143.237 153.094C143.286 153.145 143.321 153.202 143.363 153.258C143.393 153.3 143.434 153.337 143.458 153.383C143.499 153.453 143.522 153.526 143.55 153.6C143.564 153.64 143.589 153.677 143.599 153.719C143.632 153.838 143.648 153.961 143.648 154.084V190.063L157.743 181.993V163.601C157.743 163.478 157.76 163.354 157.792 163.237C157.804 163.195 157.827 163.158 157.841 163.118C157.869 163.044 157.894 162.969 157.933 162.901C157.959 162.855 157.998 162.819 158.028 162.777C158.07 162.721 158.105 162.663 158.154 162.614C158.195 162.574 158.246 162.544 158.292 162.509C158.344 162.467 158.39 162.421 158.447 162.388H158.448L175.364 152.705C175.578 152.583 175.821 152.518 176.068 152.518C176.315 152.518 176.558 152.583 176.772 152.705L193.685 162.388C193.745 162.423 193.791 162.467 193.844 162.507C193.888 162.542 193.939 162.574 193.979 162.612C194.028 162.663 194.064 162.721 194.106 162.777C194.138 162.819 194.176 162.855 194.201 162.901C194.241 162.969 194.264 163.044 194.292 163.118C194.308 163.158 194.331 163.195 194.342 163.237V163.237ZM191.572 181.993V166.026L185.653 169.414L177.476 174.096V190.063L191.573 181.993H191.572ZM174.658 210.877V194.9L166.615 199.467L143.647 212.501V228.629L174.658 210.877ZM109.82 156.508V210.877L140.827 228.627V212.503L124.628 203.387L124.623 203.384L124.616 203.38C124.561 203.349 124.516 203.303 124.464 203.265C124.42 203.23 124.369 203.202 124.331 203.163L124.327 203.158C124.281 203.114 124.25 203.06 124.211 203.011C124.176 202.964 124.134 202.923 124.105 202.874L124.104 202.869C124.072 202.817 124.053 202.754 124.03 202.694C124.007 202.642 123.977 202.593 123.963 202.537V202.535C123.945 202.468 123.942 202.398 123.935 202.33C123.928 202.278 123.914 202.225 123.914 202.173V202.169V164.577L115.738 159.894L109.82 156.51V156.508ZM125.325 146.019L111.233 154.084L125.322 162.15L139.412 154.083L125.322 146.019H125.325ZM132.654 196.356L140.829 191.676V156.508L134.91 159.896L126.733 164.577V199.745L132.654 196.356ZM176.068 155.537L161.977 163.603L176.068 171.668L190.156 163.601L176.068 155.537V155.537ZM174.658 174.096L166.481 169.414L160.562 166.026V181.993L168.737 186.673L174.658 190.063V174.096ZM142.235 210.077L162.903 198.345L173.234 192.483L159.154 184.422L142.943 193.703L128.168 202.16L142.235 210.077V210.077Z" fill="#5C5C5C"/>
  <defs>
    <clipPath id="clip0">
      <rect width="93" height="81" fill="white" transform="translate(250 27)"/>
    </clipPath>
    <clipPath id="clip1">
      <rect width="154" height="54" fill="white" transform="translate(234 168)"/>
    </clipPath>
  </defs>
</svg>
