<svg width="418" height="280" viewBox="0 0 418 280" fill="none" xmlns="http://www.w3.org/2000/svg">
  <path d="M111 143.609L210.298 23L183.32 122.901H257L150.901 236L178.559 143.609H111Z" fill="#B7B7B7"/>
  <path d="M332.241 94.3915L353.42 19.431L361.159 70.3596L394.86 55.4806L369.062 128.396L363.143 80.7486L332.241 94.3915Z" fill="#141414"/>
  <path d="M51.6554 24.1986L81.6658 8.26654L67.9497 26.0644L82.8024 32.1982L52.0433 46.0574L65.2742 29.8229L51.6554 24.1986Z" fill="#1B1B1B"/>
  <path d="M41.844 248.659L64.4768 199.219L64.3636 235.178L89.2037 228.522L63.6028 276.057L64.6205 242.556L41.844 248.659Z" fill="#2E2E2E"/>
  <path d="M273.145 213.946L289.641 184.639L287.719 206.796L303.372 203.973L285.145 231.953L287.497 211.357L273.145 213.946Z" fill="#202020"/>
  <path d="M3.17967 132.497L14.5831 112.237L13.2547 127.554L24.0755 125.603L11.4753 144.945L13.1015 130.707L3.17967 132.497Z" fill="#171717"/>
  <path d="M264.935 58.8751L264.051 35.6433L270.934 49.391L279.134 42.0654L278.518 65.1416L272.454 52.1581L264.935 58.8751Z" fill="#212121"/>
</svg>
