<svg width="454" height="262" viewBox="0 0 454 262" fill="none" xmlns="http://www.w3.org/2000/svg">
  <path d="M359.297 256.513H88.2968C-1.70329 256.513 -43.2031 126.013 91.2968 126.013C91.2968 -23.487 269.296 -18.9874 308.296 56.0131C470.296 19.0129 499.296 256.513 359.297 256.513Z" stroke="white" stroke-width="9"/>
  <mask id="mask0" mask-type="alpha" maskUnits="userSpaceOnUse" x="9" y="9" width="436" height="244">
    <path d="M355.095 252.013H90.2128C3.79642 253.513 -38.2036 129.013 93.7963 130.013C92.7963 -18.4869 270.296 -14.9869 305.796 61.0131C467.296 19.5131 492.796 257.513 355.095 252.013Z" fill="#C4C4C4"/>
  </mask>
  <g mask="url(#mask0)">
    <path d="M345.578 226.66H338.928V245H335.251V226.66H328.659V223.672H345.578V226.66ZM360.607 237.236C360.607 239.688 360.051 241.646 358.938 243.11C357.824 244.565 356.33 245.293 354.455 245.293C352.717 245.293 351.325 244.722 350.28 243.579V251.094H346.721V229.15H350.002L350.148 230.762C351.193 229.492 352.614 228.857 354.411 228.857C356.345 228.857 357.858 229.58 358.952 231.025C360.056 232.461 360.607 234.458 360.607 237.017V237.236ZM357.062 236.929C357.062 235.347 356.745 234.092 356.11 233.164C355.485 232.236 354.587 231.772 353.415 231.772C351.96 231.772 350.915 232.373 350.28 233.574V240.605C350.925 241.836 351.979 242.451 353.444 242.451C354.577 242.451 355.461 241.997 356.096 241.089C356.74 240.171 357.062 238.784 357.062 236.929ZM373.103 245C372.946 244.697 372.81 244.204 372.692 243.521C371.56 244.702 370.173 245.293 368.532 245.293C366.94 245.293 365.642 244.839 364.636 243.931C363.63 243.022 363.127 241.899 363.127 240.562C363.127 238.872 363.752 237.578 365.002 236.68C366.262 235.771 368.059 235.317 370.393 235.317H372.575V234.277C372.575 233.457 372.346 232.803 371.887 232.314C371.428 231.816 370.729 231.567 369.792 231.567C368.981 231.567 368.317 231.772 367.8 232.183C367.282 232.583 367.023 233.096 367.023 233.721H363.464C363.464 232.852 363.752 232.041 364.328 231.289C364.904 230.527 365.686 229.932 366.672 229.502C367.668 229.072 368.776 228.857 369.997 228.857C371.853 228.857 373.332 229.326 374.436 230.264C375.539 231.191 376.105 232.5 376.135 234.189V241.338C376.135 242.764 376.335 243.901 376.735 244.751V245H373.103ZM369.191 242.437C369.895 242.437 370.554 242.266 371.169 241.924C371.794 241.582 372.263 241.123 372.575 240.547V237.559H370.656C369.338 237.559 368.347 237.788 367.683 238.247C367.019 238.706 366.687 239.355 366.687 240.195C366.687 240.879 366.911 241.426 367.36 241.836C367.819 242.236 368.43 242.437 369.191 242.437ZM385.173 239.902L388.396 229.15H392.189L385.891 247.402C384.924 250.068 383.283 251.401 380.969 251.401C380.451 251.401 379.88 251.313 379.255 251.138V248.384L379.929 248.428C380.827 248.428 381.501 248.262 381.95 247.93C382.409 247.607 382.771 247.061 383.034 246.289L383.547 244.927L377.98 229.15H381.818L385.173 239.902Z" fill="#292929"/>
    <path d="M238.832 239.434V250H233.891V221.562H244.77C247.947 221.562 250.466 222.389 252.328 224.043C254.203 225.697 255.141 227.884 255.141 230.605C255.141 233.392 254.223 235.56 252.387 237.109C250.564 238.659 248.005 239.434 244.711 239.434H238.832ZM238.832 235.469H244.77C246.527 235.469 247.868 235.059 248.793 234.238C249.717 233.405 250.18 232.207 250.18 230.645C250.18 229.108 249.711 227.884 248.773 226.973C247.836 226.048 246.547 225.573 244.906 225.547H238.832V235.469ZM271.41 250C271.202 249.596 271.02 248.939 270.863 248.027C269.353 249.603 267.504 250.391 265.316 250.391C263.194 250.391 261.462 249.785 260.121 248.574C258.78 247.363 258.109 245.866 258.109 244.082C258.109 241.829 258.943 240.104 260.609 238.906C262.289 237.695 264.685 237.09 267.797 237.09H270.707V235.703C270.707 234.609 270.401 233.737 269.789 233.086C269.177 232.422 268.246 232.09 266.996 232.09C265.915 232.09 265.03 232.363 264.34 232.91C263.65 233.444 263.305 234.128 263.305 234.961H258.559C258.559 233.802 258.943 232.721 259.711 231.719C260.479 230.703 261.521 229.909 262.836 229.336C264.164 228.763 265.642 228.477 267.27 228.477C269.743 228.477 271.716 229.102 273.188 230.352C274.659 231.589 275.414 233.333 275.453 235.586V245.117C275.453 247.018 275.72 248.535 276.254 249.668V250H271.41ZM266.195 246.582C267.133 246.582 268.012 246.354 268.832 245.898C269.665 245.443 270.29 244.831 270.707 244.062V240.078H268.148C266.391 240.078 265.069 240.384 264.184 240.996C263.298 241.608 262.855 242.474 262.855 243.594C262.855 244.505 263.155 245.234 263.754 245.781C264.366 246.315 265.18 246.582 266.195 246.582ZM287.504 243.203L291.801 228.867H296.859L288.461 253.203C287.172 256.758 284.984 258.535 281.898 258.535C281.208 258.535 280.447 258.418 279.613 258.184V254.512L280.512 254.57C281.71 254.57 282.608 254.349 283.207 253.906C283.819 253.477 284.301 252.747 284.652 251.719L285.336 249.902L277.914 228.867H283.031L287.504 243.203ZM320.863 221.562V240.566C320.863 243.587 319.893 245.983 317.953 247.754C316.026 249.512 313.454 250.391 310.238 250.391C306.983 250.391 304.398 249.525 302.484 247.793C300.57 246.048 299.613 243.633 299.613 240.547V221.562H304.535V240.586C304.535 242.487 305.017 243.939 305.98 244.941C306.944 245.944 308.363 246.445 310.238 246.445C314.04 246.445 315.941 244.44 315.941 240.43V221.562H320.863Z" fill="#2D2D2D"/>
    <path d="M62.5859 236.523C62.5859 239.31 62.1042 241.758 61.1406 243.867C60.1771 245.964 58.7969 247.578 57 248.711C55.2161 249.831 53.1589 250.391 50.8281 250.391C48.5234 250.391 46.4661 249.831 44.6562 248.711C42.8594 247.578 41.4661 245.97 40.4766 243.887C39.5 241.803 39.0052 239.401 38.9922 236.68V235.078C38.9922 232.305 39.4805 229.857 40.457 227.734C41.4466 225.612 42.8333 223.991 44.6172 222.871C46.4141 221.738 48.4714 221.172 50.7891 221.172C53.1068 221.172 55.1576 221.732 56.9414 222.852C58.7383 223.958 60.125 225.56 61.1016 227.656C62.0781 229.74 62.5729 232.168 62.5859 234.941V236.523ZM57.6445 235.039C57.6445 231.888 57.0456 229.473 55.8477 227.793C54.6628 226.113 52.9766 225.273 50.7891 225.273C48.6536 225.273 46.9805 226.113 45.7695 227.793C44.5716 229.46 43.9596 231.823 43.9336 234.883V236.523C43.9336 239.648 44.5391 242.064 45.75 243.77C46.974 245.475 48.6667 246.328 50.8281 246.328C53.0156 246.328 54.6953 245.495 55.8672 243.828C57.0521 242.161 57.6445 239.727 57.6445 236.523V235.039ZM71.4531 228.867L71.5898 231.309C73.1523 229.421 75.2031 228.477 77.7422 228.477C82.1432 228.477 84.3828 230.996 84.4609 236.035V250H79.7148V236.309C79.7148 234.967 79.4219 233.978 78.8359 233.34C78.263 232.689 77.319 232.363 76.0039 232.363C74.0898 232.363 72.6641 233.229 71.7266 234.961V250H66.9805V228.867H71.4531ZM98.6211 250.391C95.6133 250.391 93.1719 249.447 91.2969 247.559C89.4349 245.658 88.5039 243.132 88.5039 239.98V239.395C88.5039 237.285 88.9076 235.404 89.7148 233.75C90.5352 232.083 91.681 230.788 93.1523 229.863C94.6237 228.939 96.2643 228.477 98.0742 228.477C100.952 228.477 103.172 229.395 104.734 231.23C106.31 233.066 107.098 235.664 107.098 239.023V240.938H93.2891C93.4323 242.682 94.0117 244.062 95.0273 245.078C96.056 246.094 97.3451 246.602 98.8945 246.602C101.069 246.602 102.84 245.723 104.207 243.965L106.766 246.406C105.919 247.669 104.786 248.652 103.367 249.355C101.961 250.046 100.379 250.391 98.6211 250.391ZM98.0547 232.285C96.7526 232.285 95.6979 232.741 94.8906 233.652C94.0964 234.564 93.5885 235.833 93.3672 237.461H102.41V237.109C102.306 235.521 101.883 234.323 101.141 233.516C100.398 232.695 99.3698 232.285 98.0547 232.285ZM126.121 242.676C126.121 241.426 125.678 240.462 124.793 239.785C123.921 239.108 122.339 238.424 120.047 237.734C117.755 237.044 115.932 236.276 114.578 235.43C111.987 233.802 110.691 231.68 110.691 229.062C110.691 226.771 111.622 224.883 113.484 223.398C115.359 221.914 117.788 221.172 120.77 221.172C122.749 221.172 124.513 221.536 126.062 222.266C127.612 222.995 128.829 224.036 129.715 225.391C130.6 226.732 131.043 228.223 131.043 229.863H126.121C126.121 228.379 125.652 227.22 124.715 226.387C123.79 225.54 122.462 225.117 120.73 225.117C119.116 225.117 117.859 225.462 116.961 226.152C116.076 226.842 115.633 227.806 115.633 229.043C115.633 230.085 116.115 230.957 117.078 231.66C118.042 232.35 119.63 233.027 121.844 233.691C124.057 234.342 125.835 235.091 127.176 235.938C128.517 236.771 129.5 237.734 130.125 238.828C130.75 239.909 131.062 241.178 131.062 242.637C131.062 245.007 130.151 246.895 128.328 248.301C126.518 249.694 124.057 250.391 120.945 250.391C118.888 250.391 116.993 250.013 115.262 249.258C113.543 248.49 112.202 247.435 111.238 246.094C110.288 244.753 109.812 243.19 109.812 241.406H114.754C114.754 243.021 115.288 244.271 116.355 245.156C117.423 246.042 118.953 246.484 120.945 246.484C122.664 246.484 123.953 246.139 124.812 245.449C125.685 244.746 126.121 243.822 126.121 242.676ZM139.988 250H135.242V228.867H139.988V250ZM134.949 223.379C134.949 222.65 135.177 222.044 135.633 221.562C136.102 221.081 136.766 220.84 137.625 220.84C138.484 220.84 139.148 221.081 139.617 221.562C140.086 222.044 140.32 222.65 140.32 223.379C140.32 224.095 140.086 224.694 139.617 225.176C139.148 225.645 138.484 225.879 137.625 225.879C136.766 225.879 136.102 225.645 135.633 225.176C135.177 224.694 134.949 224.095 134.949 223.379ZM144.344 239.277C144.344 235.996 145.112 233.379 146.648 231.426C148.198 229.46 150.249 228.477 152.801 228.477C155.21 228.477 157.104 229.316 158.484 230.996L158.699 228.867H162.977V249.355C162.977 252.129 162.111 254.316 160.379 255.918C158.66 257.52 156.336 258.32 153.406 258.32C151.857 258.32 150.34 257.995 148.855 257.344C147.384 256.706 146.264 255.866 145.496 254.824L147.742 251.973C149.201 253.704 150.997 254.57 153.133 254.57C154.708 254.57 155.952 254.141 156.863 253.281C157.775 252.435 158.23 251.185 158.23 249.531V248.105C156.863 249.629 155.04 250.391 152.762 250.391C150.288 250.391 148.263 249.408 146.688 247.441C145.125 245.475 144.344 242.754 144.344 239.277ZM149.07 239.688C149.07 241.81 149.5 243.483 150.359 244.707C151.232 245.918 152.436 246.523 153.973 246.523C155.887 246.523 157.306 245.703 158.23 244.062V234.766C157.332 233.164 155.926 232.363 154.012 232.363C152.449 232.363 151.232 232.982 150.359 234.219C149.5 235.456 149.07 237.279 149.07 239.688ZM172.273 228.867L172.41 231.309C173.973 229.421 176.023 228.477 178.562 228.477C182.964 228.477 185.203 230.996 185.281 236.035V250H180.535V236.309C180.535 234.967 180.242 233.978 179.656 233.34C179.083 232.689 178.139 232.363 176.824 232.363C174.91 232.363 173.484 233.229 172.547 234.961V250H167.801V228.867H172.273ZM202.762 250C202.553 249.596 202.371 248.939 202.215 248.027C200.704 249.603 198.855 250.391 196.668 250.391C194.546 250.391 192.814 249.785 191.473 248.574C190.132 247.363 189.461 245.866 189.461 244.082C189.461 241.829 190.294 240.104 191.961 238.906C193.641 237.695 196.036 237.09 199.148 237.09H202.059V235.703C202.059 234.609 201.753 233.737 201.141 233.086C200.529 232.422 199.598 232.09 198.348 232.09C197.267 232.09 196.382 232.363 195.691 232.91C195.001 233.444 194.656 234.128 194.656 234.961H189.91C189.91 233.802 190.294 232.721 191.062 231.719C191.831 230.703 192.872 229.909 194.188 229.336C195.516 228.763 196.993 228.477 198.621 228.477C201.095 228.477 203.068 229.102 204.539 230.352C206.01 231.589 206.766 233.333 206.805 235.586V245.117C206.805 247.018 207.072 248.535 207.605 249.668V250H202.762ZM197.547 246.582C198.484 246.582 199.363 246.354 200.184 245.898C201.017 245.443 201.642 244.831 202.059 244.062V240.078H199.5C197.742 240.078 196.421 240.384 195.535 240.996C194.65 241.608 194.207 242.474 194.207 243.594C194.207 244.505 194.507 245.234 195.105 245.781C195.717 246.315 196.531 246.582 197.547 246.582ZM216.824 250H212.078V220H216.824V250Z" fill="#404040"/>
    <path d="M28.4211 208.584C27.1868 210.193 25.4758 211.412 23.2883 212.24C21.1008 213.068 18.6165 213.482 15.8352 213.482C12.9758 213.482 10.4446 212.834 8.24146 211.537C6.03833 210.24 4.33521 208.388 3.13208 205.982C1.94458 203.56 1.32739 200.74 1.28052 197.521V194.849C1.28052 189.693 2.51489 185.67 4.98364 182.779C7.45239 179.873 10.8977 178.42 15.3196 178.42C19.1165 178.42 22.1321 179.357 24.3665 181.232C26.6008 183.107 27.9446 185.81 28.3977 189.341H22.5852C21.929 185.232 19.5461 183.177 15.4368 183.177C12.7805 183.177 10.7571 184.138 9.36646 186.06C7.99146 187.966 7.28052 190.771 7.23364 194.474V197.099C7.23364 200.787 8.00708 203.654 9.55396 205.701C11.1165 207.732 13.2805 208.748 16.0461 208.748C19.0774 208.748 21.2336 208.06 22.5149 206.685V200.005H15.4836V195.505H28.4211V208.584ZM33.3196 200.099C33.3196 197.615 33.8118 195.38 34.7961 193.396C35.7805 191.396 37.1633 189.865 38.9446 188.802C40.7258 187.724 42.7727 187.185 45.0852 187.185C48.5071 187.185 51.2805 188.287 53.4055 190.49C55.5461 192.693 56.7024 195.615 56.8743 199.255L56.8977 200.591C56.8977 203.091 56.4133 205.326 55.4446 207.295C54.4915 209.263 53.1165 210.787 51.3196 211.865C49.5383 212.943 47.4758 213.482 45.1321 213.482C41.554 213.482 38.6868 212.295 36.5305 209.92C34.3899 207.529 33.3196 204.349 33.3196 200.38V200.099ZM39.0149 200.591C39.0149 203.201 39.554 205.248 40.6321 206.732C41.7102 208.201 43.2102 208.935 45.1321 208.935C47.054 208.935 48.5461 208.185 49.6086 206.685C50.6868 205.185 51.2258 202.99 51.2258 200.099C51.2258 197.537 50.6711 195.505 49.5618 194.005C48.468 192.505 46.9758 191.755 45.0852 191.755C43.2258 191.755 41.7493 192.498 40.6555 193.982C39.5618 195.451 39.0149 197.654 39.0149 200.591ZM60.6477 200.099C60.6477 197.615 61.1399 195.38 62.1243 193.396C63.1086 191.396 64.4915 189.865 66.2727 188.802C68.054 187.724 70.1008 187.185 72.4133 187.185C75.8352 187.185 78.6086 188.287 80.7336 190.49C82.8743 192.693 84.0305 195.615 84.2024 199.255L84.2258 200.591C84.2258 203.091 83.7415 205.326 82.7727 207.295C81.8196 209.263 80.4446 210.787 78.6477 211.865C76.8665 212.943 74.804 213.482 72.4602 213.482C68.8821 213.482 66.0149 212.295 63.8586 209.92C61.718 207.529 60.6477 204.349 60.6477 200.38V200.099ZM66.343 200.591C66.343 203.201 66.8821 205.248 67.9602 206.732C69.0383 208.201 70.5383 208.935 72.4602 208.935C74.3821 208.935 75.8743 208.185 76.9368 206.685C78.0149 205.185 78.554 202.99 78.554 200.099C78.554 197.537 77.9993 195.505 76.8899 194.005C75.7961 192.505 74.304 191.755 72.4133 191.755C70.554 191.755 69.0774 192.498 67.9836 193.982C66.8899 195.451 66.343 197.654 66.343 200.591ZM88.0461 200.146C88.0461 196.209 88.968 193.068 90.8118 190.724C92.6711 188.365 95.1321 187.185 98.1946 187.185C101.085 187.185 103.359 188.193 105.015 190.209L105.273 187.654H110.406V212.24C110.406 215.568 109.366 218.193 107.288 220.115C105.226 222.037 102.437 222.998 98.9211 222.998C97.0618 222.998 95.2415 222.607 93.4602 221.826C91.6946 221.06 90.3508 220.052 89.429 218.802L92.1243 215.38C93.8743 217.459 96.0305 218.498 98.593 218.498C100.484 218.498 101.976 217.982 103.07 216.951C104.163 215.935 104.71 214.435 104.71 212.451V210.74C103.07 212.568 100.882 213.482 98.1477 213.482C95.179 213.482 92.7493 212.302 90.8586 209.943C88.9836 207.584 88.0461 204.318 88.0461 200.146ZM93.718 200.638C93.718 203.185 94.2336 205.193 95.2649 206.662C96.3118 208.115 97.7571 208.841 99.6008 208.841C101.898 208.841 103.601 207.857 104.71 205.888V194.732C103.632 192.81 101.945 191.849 99.6477 191.849C97.7727 191.849 96.3118 192.591 95.2649 194.076C94.2336 195.56 93.718 197.748 93.718 200.638ZM122.335 213.013H116.64V177.013H122.335V213.013ZM139.726 213.482C136.116 213.482 133.187 212.349 130.937 210.084C128.702 207.802 127.585 204.771 127.585 200.99V200.287C127.585 197.755 128.07 195.498 129.038 193.513C130.023 191.513 131.398 189.959 133.163 188.849C134.929 187.74 136.898 187.185 139.07 187.185C142.523 187.185 145.187 188.287 147.062 190.49C148.952 192.693 149.898 195.81 149.898 199.841V202.138H133.327C133.499 204.232 134.195 205.888 135.413 207.107C136.648 208.326 138.195 208.935 140.054 208.935C142.663 208.935 144.788 207.88 146.429 205.771L149.499 208.701C148.484 210.216 147.124 211.396 145.421 212.24C143.734 213.068 141.835 213.482 139.726 213.482ZM139.046 191.755C137.484 191.755 136.218 192.302 135.249 193.396C134.296 194.49 133.687 196.013 133.421 197.966H144.273V197.545C144.148 195.638 143.64 194.201 142.749 193.232C141.859 192.248 140.624 191.755 139.046 191.755ZM185.945 205.068H172.726L169.96 213.013H163.796L176.687 178.888H182.007L194.921 213.013H188.734L185.945 205.068ZM174.39 200.287H184.281L179.335 186.13L174.39 200.287ZM197.195 200.146C197.195 196.24 198.101 193.107 199.913 190.748C201.726 188.373 204.156 187.185 207.202 187.185C209.89 187.185 212.062 188.123 213.718 189.998V177.013H219.413V213.013H214.257L213.976 210.388C212.273 212.451 209.999 213.482 207.156 213.482C204.187 213.482 201.781 212.287 199.937 209.896C198.109 207.505 197.195 204.255 197.195 200.146ZM202.89 200.638C202.89 203.216 203.382 205.232 204.366 206.685C205.366 208.123 206.781 208.841 208.609 208.841C210.937 208.841 212.64 207.802 213.718 205.724V194.896C212.671 192.865 210.984 191.849 208.656 191.849C206.812 191.849 205.39 192.584 204.39 194.052C203.39 195.505 202.89 197.701 202.89 200.638ZM239.57 206.123C239.57 205.107 239.148 204.334 238.304 203.802C237.476 203.271 236.093 202.802 234.156 202.396C232.218 201.99 230.601 201.474 229.304 200.849C226.46 199.474 225.038 197.482 225.038 194.873C225.038 192.685 225.96 190.857 227.804 189.388C229.648 187.92 231.991 187.185 234.835 187.185C237.866 187.185 240.312 187.935 242.171 189.435C244.046 190.935 244.984 192.88 244.984 195.271H239.288C239.288 194.177 238.882 193.271 238.07 192.552C237.257 191.818 236.179 191.451 234.835 191.451C233.585 191.451 232.562 191.74 231.765 192.318C230.984 192.896 230.593 193.67 230.593 194.638C230.593 195.513 230.96 196.193 231.695 196.677C232.429 197.162 233.913 197.654 236.148 198.154C238.382 198.638 240.132 199.224 241.398 199.912C242.679 200.584 243.624 201.396 244.234 202.349C244.859 203.302 245.171 204.459 245.171 205.818C245.171 208.099 244.226 209.951 242.335 211.373C240.445 212.779 237.968 213.482 234.906 213.482C232.827 213.482 230.976 213.107 229.351 212.357C227.726 211.607 226.46 210.576 225.554 209.263C224.648 207.951 224.195 206.537 224.195 205.021H229.726C229.804 206.365 230.312 207.404 231.249 208.138C232.187 208.857 233.429 209.216 234.976 209.216C236.476 209.216 237.616 208.935 238.398 208.373C239.179 207.795 239.57 207.045 239.57 206.123Z" fill="#9D9D9D"/>
    <path d="M258.132 213.013V170.357H270.73C274.499 170.357 277.839 171.197 280.749 172.877C283.679 174.556 285.945 176.939 287.546 180.025C289.148 183.111 289.948 186.646 289.948 190.63V192.769C289.948 196.812 289.138 200.367 287.517 203.433C285.915 206.5 283.62 208.863 280.632 210.523C277.663 212.183 274.255 213.013 270.407 213.013H258.132ZM265.544 176.334V207.095H270.378C274.265 207.095 277.243 205.884 279.314 203.463C281.404 201.021 282.468 197.525 282.507 192.974V190.601C282.507 185.972 281.501 182.437 279.49 179.996C277.478 177.554 274.558 176.334 270.73 176.334H265.544ZM295.31 196.871C295.31 193.765 295.925 190.972 297.156 188.492C298.386 185.992 300.115 184.078 302.341 182.75C304.568 181.402 307.126 180.728 310.017 180.728C314.294 180.728 317.761 182.105 320.417 184.859C323.093 187.613 324.538 191.265 324.753 195.816L324.782 197.486C324.782 200.611 324.177 203.404 322.966 205.865C321.775 208.326 320.056 210.23 317.81 211.578C315.583 212.925 313.005 213.599 310.075 213.599C305.603 213.599 302.019 212.115 299.323 209.146C296.648 206.158 295.31 202.183 295.31 197.222V196.871ZM302.429 197.486C302.429 200.748 303.103 203.306 304.45 205.162C305.798 206.998 307.673 207.916 310.075 207.916C312.478 207.916 314.343 206.978 315.671 205.103C317.019 203.228 317.693 200.484 317.693 196.871C317.693 193.668 316.999 191.129 315.613 189.254C314.245 187.379 312.38 186.441 310.017 186.441C307.693 186.441 305.847 187.369 304.48 189.224C303.113 191.06 302.429 193.814 302.429 197.486ZM339.724 173.609V181.314H345.32V186.588H339.724V204.283C339.724 205.494 339.958 206.373 340.427 206.92C340.915 207.447 341.775 207.711 343.005 207.711C343.825 207.711 344.656 207.613 345.495 207.418V212.925C343.874 213.375 342.312 213.599 340.808 213.599C335.339 213.599 332.605 210.582 332.605 204.547V186.588H327.39V181.314H332.605V173.609H339.724ZM378.542 197.486C378.542 202.388 377.429 206.304 375.202 209.234C372.976 212.144 369.988 213.599 366.238 213.599C362.761 213.599 359.978 212.457 357.888 210.172V225.201H350.769V181.314H357.331L357.624 184.537C359.714 181.998 362.556 180.728 366.15 180.728C370.017 180.728 373.044 182.173 375.232 185.064C377.439 187.935 378.542 191.929 378.542 197.047V197.486ZM371.452 196.871C371.452 193.707 370.818 191.197 369.548 189.341C368.298 187.486 366.501 186.558 364.157 186.558C361.247 186.558 359.157 187.759 357.888 190.162V204.224C359.177 206.685 361.286 207.916 364.216 207.916C366.482 207.916 368.249 207.007 369.519 205.191C370.808 203.355 371.452 200.582 371.452 196.871ZM403.532 213.013C403.22 212.408 402.947 211.422 402.712 210.054C400.447 212.418 397.673 213.599 394.392 213.599C391.208 213.599 388.611 212.691 386.599 210.875C384.587 209.058 383.581 206.812 383.581 204.136C383.581 200.757 384.831 198.17 387.331 196.373C389.851 194.556 393.445 193.648 398.113 193.648H402.478V191.568C402.478 189.927 402.019 188.619 401.101 187.642C400.183 186.646 398.786 186.148 396.911 186.148C395.29 186.148 393.962 186.558 392.927 187.379C391.892 188.179 391.374 189.205 391.374 190.455H384.255C384.255 188.716 384.831 187.095 385.984 185.591C387.136 184.068 388.698 182.877 390.671 182.017C392.663 181.158 394.88 180.728 397.322 180.728C401.032 180.728 403.991 181.666 406.198 183.541C408.406 185.396 409.538 188.013 409.597 191.392V205.689C409.597 208.541 409.997 210.816 410.798 212.515V213.013H403.532ZM395.71 207.886C397.116 207.886 398.435 207.545 399.665 206.861C400.915 206.177 401.853 205.259 402.478 204.107V198.13H398.64C396.003 198.13 394.021 198.589 392.693 199.507C391.365 200.425 390.7 201.724 390.7 203.404C390.7 204.771 391.15 205.865 392.048 206.685C392.966 207.486 394.187 207.886 395.71 207.886ZM427.673 202.818L434.118 181.314H441.706L429.109 217.818C427.175 223.15 423.894 225.816 419.265 225.816C418.23 225.816 417.087 225.64 415.837 225.289V219.781L417.185 219.869C418.982 219.869 420.329 219.537 421.228 218.873C422.146 218.228 422.868 217.134 423.396 215.591L424.421 212.867L413.288 181.314H420.964L427.673 202.818Z" fill="#CCCCCC"/>
    <path d="M200.495 144.322H179.894V166.013H170.999V114.826H203.519V121.998H179.894V137.22H200.495V144.322ZM218.847 166.013H210.304V127.974H218.847V166.013ZM209.777 118.095C209.777 116.783 210.187 115.693 211.007 114.826C211.851 113.959 213.046 113.525 214.593 113.525C216.14 113.525 217.335 113.959 218.179 114.826C219.023 115.693 219.445 116.783 219.445 118.095C219.445 119.384 219.023 120.463 218.179 121.33C217.335 122.173 216.14 122.595 214.593 122.595C213.046 122.595 211.851 122.173 211.007 121.33C210.187 120.463 209.777 119.384 209.777 118.095ZM248.097 135.779C246.972 135.591 245.812 135.498 244.616 135.498C240.702 135.498 238.066 136.998 236.706 139.998V166.013H228.163V127.974H236.32L236.531 132.228C238.593 128.923 241.452 127.271 245.109 127.271C246.327 127.271 247.335 127.435 248.132 127.763L248.097 135.779ZM269.542 166.716C264.128 166.716 259.734 165.017 256.359 161.619C253.007 158.197 251.331 153.65 251.331 147.978V146.923C251.331 143.127 252.058 139.74 253.511 136.763C254.988 133.763 257.05 131.431 259.698 129.767C262.347 128.103 265.3 127.271 268.558 127.271C273.738 127.271 277.734 128.923 280.546 132.228C283.382 135.533 284.8 140.209 284.8 146.255V149.701H259.945C260.202 152.841 261.245 155.326 263.073 157.154C264.925 158.982 267.245 159.896 270.034 159.896C273.948 159.896 277.136 158.314 279.597 155.15L284.202 159.545C282.679 161.818 280.64 163.588 278.085 164.853C275.554 166.095 272.706 166.716 269.542 166.716ZM268.523 134.127C266.179 134.127 264.281 134.947 262.827 136.588C261.398 138.228 260.484 140.513 260.085 143.443H276.363V142.81C276.175 139.951 275.413 137.795 274.077 136.341C272.741 134.865 270.89 134.127 268.523 134.127ZM324.843 147.38C324.843 153.287 323.519 157.986 320.87 161.478C318.245 164.97 314.624 166.716 310.007 166.716C305.554 166.716 302.085 165.111 299.601 161.9L299.179 166.013H291.445V112.013H299.988V131.63C302.448 128.724 305.765 127.271 309.937 127.271C314.577 127.271 318.222 128.994 320.87 132.439C323.519 135.884 324.843 140.701 324.843 146.888V147.38ZM316.3 146.642C316.3 142.517 315.573 139.423 314.12 137.361C312.667 135.298 310.558 134.267 307.792 134.267C304.089 134.267 301.488 135.884 299.988 139.119V154.798C301.511 158.103 304.136 159.755 307.863 159.755C310.534 159.755 312.597 158.759 314.05 156.767C315.503 154.775 316.253 151.763 316.3 147.732V146.642ZM354.761 166.013C354.386 165.287 354.058 164.103 353.777 162.463C351.058 165.298 347.73 166.716 343.792 166.716C339.972 166.716 336.855 165.627 334.441 163.447C332.027 161.267 330.82 158.572 330.82 155.361C330.82 151.306 332.32 148.201 335.32 146.045C338.343 143.865 342.656 142.775 348.257 142.775H353.495V140.279C353.495 138.31 352.945 136.74 351.843 135.568C350.741 134.373 349.066 133.775 346.816 133.775C344.87 133.775 343.277 134.267 342.034 135.252C340.792 136.213 340.171 137.443 340.171 138.943H331.628C331.628 136.857 332.32 134.912 333.702 133.107C335.085 131.279 336.96 129.849 339.327 128.818C341.718 127.787 344.378 127.271 347.308 127.271C351.761 127.271 355.312 128.396 357.96 130.646C360.609 132.873 361.968 136.013 362.038 140.068V157.224C362.038 160.646 362.519 163.377 363.48 165.416V166.013H354.761ZM345.374 159.861C347.062 159.861 348.644 159.451 350.12 158.63C351.62 157.81 352.745 156.709 353.495 155.326V148.154H348.89C345.726 148.154 343.347 148.705 341.753 149.806C340.159 150.908 339.363 152.466 339.363 154.482C339.363 156.123 339.902 157.435 340.98 158.42C342.081 159.38 343.546 159.861 345.374 159.861ZM392.308 155.677C392.308 154.154 391.675 152.994 390.409 152.197C389.167 151.4 387.093 150.697 384.187 150.088C381.281 149.478 378.855 148.705 376.909 147.767C372.644 145.705 370.511 142.716 370.511 138.802C370.511 135.521 371.894 132.779 374.659 130.576C377.425 128.373 380.941 127.271 385.206 127.271C389.753 127.271 393.421 128.396 396.21 130.646C399.023 132.896 400.429 135.814 400.429 139.4H391.886C391.886 137.759 391.277 136.4 390.058 135.322C388.839 134.22 387.222 133.67 385.206 133.67C383.331 133.67 381.796 134.103 380.601 134.97C379.429 135.838 378.843 136.998 378.843 138.451C378.843 139.763 379.394 140.783 380.495 141.509C381.597 142.236 383.823 142.974 387.175 143.724C390.527 144.451 393.152 145.33 395.05 146.361C396.972 147.369 398.39 148.588 399.304 150.017C400.241 151.447 400.71 153.181 400.71 155.22C400.71 158.642 399.292 161.42 396.456 163.552C393.62 165.662 389.906 166.716 385.312 166.716C382.195 166.716 379.417 166.154 376.98 165.029C374.542 163.904 372.644 162.357 371.284 160.388C369.925 158.42 369.245 156.298 369.245 154.025H377.542C377.659 156.041 378.421 157.599 379.827 158.701C381.234 159.779 383.097 160.318 385.417 160.318C387.667 160.318 389.378 159.896 390.55 159.052C391.722 158.185 392.308 157.06 392.308 155.677ZM424.933 166.716C419.519 166.716 415.124 165.017 411.749 161.619C408.398 158.197 406.722 153.65 406.722 147.978V146.923C406.722 143.127 407.448 139.74 408.902 136.763C410.378 133.763 412.441 131.431 415.089 129.767C417.738 128.103 420.691 127.271 423.948 127.271C429.128 127.271 433.124 128.923 435.937 132.228C438.773 135.533 440.191 140.209 440.191 146.255V149.701H415.335C415.593 152.841 416.636 155.326 418.464 157.154C420.316 158.982 422.636 159.896 425.425 159.896C429.339 159.896 432.527 158.314 434.988 155.15L439.593 159.545C438.07 161.818 436.031 163.588 433.476 164.853C430.945 166.095 428.097 166.716 424.933 166.716ZM423.913 134.127C421.57 134.127 419.671 134.947 418.218 136.588C416.788 138.228 415.874 140.513 415.476 143.443H431.753V142.81C431.566 139.951 430.804 137.795 429.468 136.341C428.132 134.865 426.281 134.127 423.913 134.127Z" fill="white"/>
    <path d="M142.312 53.2448C141.54 54.2506 140.471 55.0123 139.104 55.5299C137.737 56.0475 136.184 56.3063 134.446 56.3063C132.658 56.3063 131.076 55.901 129.699 55.0905C128.323 54.2799 127.258 53.1227 126.506 51.6188C125.764 50.1051 125.378 48.3424 125.349 46.3307V44.6608C125.349 41.4381 126.12 38.9235 127.663 37.1168C129.206 35.3004 131.36 34.3922 134.123 34.3922C136.496 34.3922 138.381 34.9781 139.778 36.15C141.174 37.3219 142.014 39.0114 142.297 41.2184H138.664C138.254 38.65 136.765 37.3658 134.197 37.3658C132.536 37.3658 131.272 37.9664 130.403 39.1676C129.543 40.359 129.099 42.1119 129.07 44.4264V46.067C129.07 48.3717 129.553 50.1637 130.52 51.443C131.496 52.7125 132.849 53.3473 134.577 53.3473C136.472 53.3473 137.82 52.9176 138.62 52.0582V47.8834H134.226V45.0709H142.312V53.2448ZM145.373 47.942C145.373 46.3893 145.681 44.9928 146.296 43.7526C146.911 42.5026 147.776 41.5455 148.889 40.8815C150.002 40.2076 151.281 39.8707 152.727 39.8707C154.865 39.8707 156.599 40.5592 157.927 41.9362C159.265 43.3131 159.988 45.1393 160.095 47.4147L160.11 48.2496C160.11 49.8121 159.807 51.2086 159.201 52.4391C158.606 53.6696 157.746 54.6217 156.623 55.2955C155.51 55.9694 154.221 56.3063 152.756 56.3063C150.52 56.3063 148.728 55.5641 147.38 54.0797C146.042 52.5856 145.373 50.5983 145.373 48.1178V47.942ZM148.933 48.2496C148.933 49.8805 149.27 51.1598 149.944 52.0875C150.617 53.0055 151.555 53.4645 152.756 53.4645C153.957 53.4645 154.89 52.9957 155.554 52.0582C156.228 51.1207 156.565 49.7487 156.565 47.942C156.565 46.3405 156.218 45.0709 155.525 44.1334C154.841 43.1959 153.908 42.7272 152.727 42.7272C151.565 42.7272 150.642 43.191 149.958 44.1188C149.275 45.0367 148.933 46.4137 148.933 48.2496ZM162.453 47.942C162.453 46.3893 162.761 44.9928 163.376 43.7526C163.991 42.5026 164.856 41.5455 165.969 40.8815C167.082 40.2076 168.362 39.8707 169.807 39.8707C171.946 39.8707 173.679 40.5592 175.007 41.9362C176.345 43.3131 177.068 45.1393 177.175 47.4147L177.19 48.2496C177.19 49.8121 176.887 51.2086 176.281 52.4391C175.686 53.6696 174.826 54.6217 173.703 55.2955C172.59 55.9694 171.301 56.3063 169.836 56.3063C167.6 56.3063 165.808 55.5641 164.46 54.0797C163.122 52.5856 162.453 50.5983 162.453 48.1178V47.942ZM166.013 48.2496C166.013 49.8805 166.35 51.1598 167.024 52.0875C167.698 53.0055 168.635 53.4645 169.836 53.4645C171.037 53.4645 171.97 52.9957 172.634 52.0582C173.308 51.1207 173.645 49.7487 173.645 47.942C173.645 46.3405 173.298 45.0709 172.605 44.1334C171.921 43.1959 170.989 42.7272 169.807 42.7272C168.645 42.7272 167.722 43.191 167.038 44.1188C166.355 45.0367 166.013 46.4137 166.013 48.2496ZM179.577 47.9713C179.577 45.5104 180.154 43.5475 181.306 42.0826C182.468 40.608 184.006 39.8707 185.92 39.8707C187.727 39.8707 189.148 40.5006 190.183 41.7604L190.344 40.1637H193.552V55.5299C193.552 57.61 192.903 59.2506 191.604 60.4518C190.315 61.653 188.572 62.2535 186.374 62.2535C185.212 62.2535 184.074 62.0094 182.961 61.5211C181.858 61.0426 181.018 60.4127 180.442 59.6315L182.126 57.4928C183.22 58.7916 184.568 59.441 186.169 59.441C187.351 59.441 188.283 59.1188 188.967 58.4742C189.651 57.8395 189.992 56.902 189.992 55.6617V54.5924C188.967 55.735 187.6 56.3063 185.891 56.3063C184.035 56.3063 182.517 55.569 181.335 54.0944C180.163 52.6198 179.577 50.5787 179.577 47.9713ZM183.122 48.2789C183.122 49.8707 183.445 51.1256 184.089 52.0436C184.743 52.9518 185.647 53.4059 186.799 53.4059C188.235 53.4059 189.299 52.7906 189.992 51.5602V44.5875C189.319 43.3864 188.264 42.7858 186.828 42.7858C185.656 42.7858 184.743 43.2496 184.089 44.1774C183.445 45.1051 183.122 46.4723 183.122 48.2789ZM201.008 56.0133H197.448V33.5133H201.008V56.0133ZM211.877 56.3063C209.621 56.3063 207.79 55.5983 206.384 54.1823C204.988 52.7565 204.289 50.8619 204.289 48.4987V48.0592C204.289 46.4772 204.592 45.066 205.198 43.8258C205.813 42.5758 206.672 41.6041 207.776 40.9108C208.879 40.2174 210.11 39.8707 211.467 39.8707C213.625 39.8707 215.29 40.5592 216.462 41.9362C217.644 43.3131 218.235 45.2614 218.235 47.7809V49.2164H207.878C207.986 50.525 208.42 51.5602 209.182 52.3219C209.953 53.0836 210.92 53.4645 212.082 53.4645C213.713 53.4645 215.041 52.8053 216.067 51.4869L217.986 53.318C217.351 54.2653 216.501 55.0026 215.437 55.5299C214.382 56.0475 213.196 56.3063 211.877 56.3063ZM211.452 42.7272C210.476 42.7272 209.685 43.069 209.079 43.7526C208.484 44.4362 208.103 45.3883 207.937 46.609H214.719V46.3453C214.641 45.1539 214.323 44.2555 213.767 43.65C213.21 43.0348 212.439 42.7272 211.452 42.7272ZM233.63 34.6852L239.782 51.0328L245.92 34.6852H250.71V56.0133H247.019V48.9821L247.385 39.5778L241.086 56.0133H238.435L232.151 39.5924L232.517 48.9821V56.0133H228.825V34.6852H233.63ZM264.231 56.0133C264.074 55.7106 263.938 55.2174 263.821 54.5338C262.688 55.7155 261.301 56.3063 259.66 56.3063C258.069 56.3063 256.77 55.8522 255.764 54.944C254.758 54.0358 254.255 52.9127 254.255 51.5748C254.255 49.8854 254.88 48.5914 256.13 47.693C257.39 46.7848 259.187 46.3307 261.521 46.3307H263.703V45.2906C263.703 44.4703 263.474 43.816 263.015 43.3278C262.556 42.8297 261.858 42.5807 260.92 42.5807C260.11 42.5807 259.446 42.7858 258.928 43.1959C258.41 43.5963 258.152 44.109 258.152 44.734H254.592C254.592 43.8649 254.88 43.0543 255.456 42.3024C256.032 41.5406 256.814 40.9449 257.8 40.5153C258.796 40.0856 259.905 39.8707 261.125 39.8707C262.981 39.8707 264.46 40.3395 265.564 41.277C266.667 42.2047 267.234 43.5133 267.263 45.2028V52.3512C267.263 53.777 267.463 54.9147 267.864 55.7643V56.0133H264.231ZM260.32 53.4498C261.023 53.4498 261.682 53.2789 262.297 52.9371C262.922 52.5953 263.391 52.1364 263.703 51.5602V48.5719H261.784C260.466 48.5719 259.475 48.8014 258.811 49.2604C258.147 49.7194 257.815 50.3688 257.815 51.2086C257.815 51.8922 258.039 52.4391 258.489 52.8492C258.948 53.2496 259.558 53.4498 260.32 53.4498ZM284.87 48.2496C284.87 50.7008 284.314 52.6588 283.2 54.1237C282.087 55.5787 280.593 56.3063 278.718 56.3063C276.98 56.3063 275.588 55.735 274.543 54.5924V62.1071H270.984V40.1637H274.265L274.411 41.775C275.456 40.5055 276.877 39.8707 278.674 39.8707C280.608 39.8707 282.121 40.5934 283.215 42.0387C284.319 43.4742 284.87 45.4713 284.87 48.0299V48.2496ZM281.325 47.942C281.325 46.36 281.008 45.1051 280.373 44.1774C279.748 43.2496 278.85 42.7858 277.678 42.7858C276.223 42.7858 275.178 43.3864 274.543 44.5875V51.6188C275.188 52.8492 276.242 53.4645 277.707 53.4645C278.84 53.4645 279.724 53.0104 280.359 52.1022C281.003 51.1842 281.325 49.7975 281.325 47.942ZM296.78 51.7067C296.78 51.0719 296.516 50.5885 295.989 50.2565C295.471 49.9244 294.607 49.6315 293.396 49.3776C292.185 49.1237 291.174 48.8014 290.364 48.4108C288.586 47.5514 287.698 46.3063 287.698 44.6754C287.698 43.3082 288.274 42.1656 289.426 41.2477C290.578 40.3297 292.043 39.8707 293.821 39.8707C295.715 39.8707 297.243 40.3395 298.406 41.277C299.577 42.2145 300.163 43.4303 300.163 44.9244H296.604C296.604 44.2408 296.35 43.6744 295.842 43.2252C295.334 42.7662 294.66 42.5367 293.821 42.5367C293.039 42.5367 292.4 42.7174 291.902 43.0787C291.413 43.4401 291.169 43.9235 291.169 44.5289C291.169 45.0758 291.399 45.5006 291.858 45.8033C292.317 46.1061 293.244 46.4137 294.641 46.7262C296.037 47.0289 297.131 47.3951 297.922 47.8248C298.723 48.2448 299.314 48.7526 299.695 49.3483C300.085 49.944 300.281 50.6666 300.281 51.5162C300.281 52.942 299.69 54.0992 298.508 54.9879C297.326 55.8668 295.779 56.3063 293.865 56.3063C292.566 56.3063 291.408 56.0719 290.393 55.6031C289.377 55.1344 288.586 54.4899 288.02 53.6696C287.453 52.8492 287.17 51.9655 287.17 51.0182H290.627C290.676 51.858 290.993 52.5074 291.579 52.9664C292.165 53.4156 292.942 53.6403 293.908 53.6403C294.846 53.6403 295.559 53.4645 296.047 53.1129C296.535 52.7516 296.78 52.2828 296.78 51.7067Z" fill="#484848"/>
    <path d="M277.307 95.7369H263.537L260.656 104.013H254.236L267.663 68.4664H273.205L286.657 104.013H280.212L277.307 95.7369ZM265.271 90.7565H275.573L270.422 76.0104L265.271 90.7565ZM296.448 104.013H290.515V66.5133H296.448V104.013ZM309.24 104.013H303.308V66.5133H309.24V104.013ZM327.356 104.502C323.596 104.502 320.544 103.322 318.2 100.962C315.873 98.5852 314.709 95.4277 314.709 91.4889V90.7565C314.709 88.1198 315.214 85.7679 316.223 83.7008C317.248 81.6175 318.681 79.998 320.52 78.8424C322.359 77.6868 324.41 77.109 326.672 77.109C330.269 77.109 333.044 78.2565 334.997 80.5514C336.967 82.8463 337.951 86.0934 337.951 90.2926V92.6852H320.691C320.87 94.8662 321.594 96.5914 322.864 97.861C324.149 99.1305 325.761 99.7653 327.698 99.7653C330.416 99.7653 332.629 98.6666 334.338 96.4694L337.536 99.5211C336.478 101.1 335.062 102.329 333.288 103.208C331.531 104.07 329.553 104.502 327.356 104.502ZM326.648 81.8698C325.02 81.8698 323.702 82.4394 322.693 83.5787C321.7 84.7181 321.065 86.305 320.788 88.3395H332.092V87.9C331.962 85.9143 331.433 84.417 330.505 83.4078C329.577 82.3824 328.292 81.8698 326.648 81.8698ZM341.54 90.61C341.54 86.5084 342.501 83.2369 344.421 80.7955C346.358 78.3378 348.921 77.109 352.112 77.109C355.123 77.109 357.491 78.1588 359.216 80.2584L359.485 77.5973H364.831V103.208C364.831 106.674 363.749 109.409 361.584 111.411C359.436 113.413 356.531 114.414 352.868 114.414C350.932 114.414 349.035 114.007 347.18 113.193C345.341 112.395 343.941 111.346 342.981 110.044L345.788 106.479C347.611 108.644 349.857 109.726 352.527 109.726C354.496 109.726 356.05 109.189 357.19 108.115C358.329 107.057 358.899 105.494 358.899 103.427V101.645C357.19 103.549 354.911 104.502 352.063 104.502C348.97 104.502 346.439 103.273 344.47 100.815C342.517 98.3574 341.54 94.9557 341.54 90.61ZM347.448 91.1227C347.448 93.7757 347.986 95.8671 349.06 97.3971C350.15 98.9108 351.656 99.6676 353.576 99.6676C355.969 99.6676 357.743 98.6422 358.899 96.5914V84.9703C357.776 82.9684 356.018 81.9674 353.625 81.9674C351.672 81.9674 350.15 82.7405 349.06 84.2867C347.986 85.833 347.448 88.1116 347.448 91.1227ZM384.778 83.0172C383.996 82.887 383.191 82.8219 382.361 82.8219C379.642 82.8219 377.811 83.8636 376.867 85.9469V104.013H370.935V77.5973H376.599L376.745 80.5514C378.178 78.2565 380.163 77.109 382.702 77.109C383.549 77.109 384.249 77.2229 384.802 77.4508L384.778 83.0172ZM386.535 90.5612C386.535 87.9733 387.048 85.6458 388.073 83.5787C389.099 81.4954 390.539 79.9003 392.395 78.7936C394.25 77.6705 396.382 77.109 398.791 77.109C402.356 77.109 405.245 78.2565 407.458 80.5514C409.688 82.8463 410.892 85.8899 411.072 89.6823L411.096 91.0739C411.096 93.678 410.591 96.0055 409.582 98.0563C408.589 100.107 407.157 101.694 405.285 102.817C403.43 103.94 401.281 104.502 398.84 104.502C395.113 104.502 392.126 103.265 389.88 100.791C387.65 98.3004 386.535 94.9882 386.535 90.8541V90.5612ZM392.468 91.0739C392.468 93.792 393.03 95.9241 394.153 97.4703C395.276 99.0003 396.838 99.7653 398.84 99.7653C400.842 99.7653 402.396 98.984 403.503 97.4215C404.626 95.859 405.188 93.5722 405.188 90.5612C405.188 87.8919 404.61 85.776 403.454 84.2135C402.315 82.651 400.761 81.8698 398.791 81.8698C396.854 81.8698 395.316 82.6429 394.177 84.1891C393.038 85.719 392.468 88.014 392.468 91.0739Z" fill="#BABABA"/>
    <path d="M120.7 86.0714H111.258V96.0133H107.181V72.5524H122.086V75.8395H111.258V82.8165H120.7V86.0714ZM134.815 96.0133C134.643 95.6803 134.493 95.1378 134.364 94.3859C133.118 95.6857 131.593 96.3356 129.788 96.3356C128.037 96.3356 126.608 95.8361 125.502 94.837C124.395 93.838 123.842 92.6027 123.842 91.131C123.842 89.2726 124.53 87.8492 125.905 86.861C127.29 85.8619 129.267 85.3624 131.834 85.3624H134.235V84.2184C134.235 83.316 133.983 82.5963 133.478 82.0592C132.973 81.5114 132.205 81.2374 131.174 81.2374C130.282 81.2374 129.552 81.463 128.982 81.9142C128.413 82.3546 128.128 82.9186 128.128 83.6061H124.213C124.213 82.65 124.53 81.7584 125.163 80.9313C125.797 80.0934 126.656 79.4381 127.741 78.9655C128.837 78.4928 130.056 78.2565 131.399 78.2565C133.44 78.2565 135.068 78.7721 136.281 79.8033C137.495 80.8239 138.118 82.2633 138.151 84.1217V91.985C138.151 93.5533 138.371 94.8048 138.811 95.7394V96.0133H134.815ZM130.513 93.1935C131.286 93.1935 132.011 93.0055 132.688 92.6295C133.376 92.2535 133.891 91.7487 134.235 91.1149V87.8278H132.124C130.674 87.8278 129.584 88.0802 128.853 88.5851C128.123 89.09 127.758 89.8043 127.758 90.7281C127.758 91.4801 128.005 92.0817 128.499 92.5328C129.004 92.9733 129.675 93.1935 130.513 93.1935ZM149.414 93.2096C150.391 93.2096 151.202 92.9249 151.847 92.3556C152.491 91.7863 152.835 91.0826 152.878 90.2448H156.568C156.525 91.3297 156.187 92.3448 155.553 93.2902C154.919 94.2247 154.06 94.9659 152.975 95.5138C151.89 96.0616 150.719 96.3356 149.462 96.3356C147.024 96.3356 145.09 95.546 143.661 93.9669C142.233 92.3878 141.518 90.2072 141.518 87.4249V87.0221C141.518 84.3688 142.227 82.2472 143.645 80.6573C145.063 79.0568 146.997 78.2565 149.446 78.2565C151.519 78.2565 153.206 78.8634 154.506 80.0773C155.816 81.2804 156.504 82.8649 156.568 84.8307H152.878C152.835 83.8317 152.491 83.0099 151.847 82.3654C151.213 81.7208 150.402 81.3986 149.414 81.3986C148.146 81.3986 147.169 81.8605 146.481 82.7843C145.794 83.6974 145.445 85.0885 145.434 86.9576V87.5861C145.434 89.4767 145.772 90.8893 146.449 91.8239C147.136 92.7477 148.125 93.2096 149.414 93.2096ZM167.203 96.3356C164.721 96.3356 162.707 95.5568 161.16 93.9991C159.624 92.4308 158.856 90.3468 158.856 87.7472V87.2638C158.856 85.5236 159.189 83.9713 159.855 82.6071C160.532 81.2321 161.477 80.1632 162.691 79.4005C163.905 78.6378 165.259 78.2565 166.752 78.2565C169.126 78.2565 170.957 79.0138 172.246 80.5284C173.546 82.0431 174.196 84.1862 174.196 86.9576V88.5367H162.804C162.922 89.9762 163.4 91.1149 164.238 91.9528C165.087 92.7906 166.15 93.2096 167.428 93.2096C169.222 93.2096 170.683 92.4845 171.811 91.0343L173.922 93.0485C173.224 94.0905 172.289 94.9015 171.118 95.4816C169.958 96.0509 168.653 96.3356 167.203 96.3356ZM166.736 81.3986C165.661 81.3986 164.791 81.7745 164.125 82.5265C163.47 83.2784 163.051 84.3258 162.868 85.6686H170.329V85.3785C170.243 84.068 169.894 83.0797 169.281 82.4137C168.669 81.7369 167.821 81.3986 166.736 81.3986ZM192.549 87.4733C192.549 90.1803 191.942 92.3341 190.728 93.9347C189.525 95.5353 187.865 96.3356 185.749 96.3356C183.708 96.3356 182.118 95.5997 180.98 94.1281L180.786 96.0133H177.241V71.2633H181.157V80.2545C182.285 78.9225 183.805 78.2565 185.717 78.2565C187.844 78.2565 189.514 79.046 190.728 80.6251C191.942 82.2042 192.549 84.4117 192.549 87.2477V87.4733ZM188.634 87.1349C188.634 85.2443 188.301 83.8263 187.635 82.881C186.969 81.9357 186.002 81.463 184.734 81.463C183.037 81.463 181.844 82.2042 181.157 83.6866V90.8732C181.855 92.3878 183.058 93.1451 184.766 93.1451C185.991 93.1451 186.936 92.6886 187.602 91.7755C188.268 90.8624 188.612 89.4821 188.634 87.6344V87.1349ZM195.111 87.1349C195.111 85.4269 195.449 83.8907 196.126 82.5265C196.803 81.1515 197.754 80.0988 198.978 79.3683C200.203 78.6271 201.61 78.2565 203.2 78.2565C205.552 78.2565 207.459 79.0138 208.92 80.5284C210.392 82.0431 211.187 84.0519 211.305 86.5548L211.321 87.4733C211.321 89.192 210.988 90.7281 210.322 92.0817C209.667 93.4352 208.721 94.4825 207.486 95.2238C206.261 95.965 204.844 96.3356 203.232 96.3356C200.772 96.3356 198.801 95.5192 197.319 93.8864C195.847 92.2428 195.111 90.0568 195.111 87.3282V87.1349ZM199.027 87.4733C199.027 89.2672 199.397 90.6744 200.138 91.6949C200.88 92.7047 201.911 93.2096 203.232 93.2096C204.553 93.2096 205.579 92.694 206.31 91.6627C207.051 90.6315 207.422 89.1222 207.422 87.1349C207.422 85.3732 207.04 83.9767 206.278 82.9454C205.526 81.9142 204.5 81.3986 203.2 81.3986C201.922 81.3986 200.906 81.9088 200.155 82.9293C199.403 83.9391 199.027 85.4537 199.027 87.4733ZM213.899 87.1349C213.899 85.4269 214.238 83.8907 214.914 82.5265C215.591 81.1515 216.542 80.0988 217.766 79.3683C218.991 78.6271 220.398 78.2565 221.988 78.2565C224.341 78.2565 226.247 79.0138 227.708 80.5284C229.18 82.0431 229.975 84.0519 230.093 86.5548L230.109 87.4733C230.109 89.192 229.776 90.7281 229.11 92.0817C228.455 93.4352 227.51 94.4825 226.274 95.2238C225.05 95.965 223.632 96.3356 222.02 96.3356C219.56 96.3356 217.589 95.5192 216.107 93.8864C214.635 92.2428 213.899 90.0568 213.899 87.3282V87.1349ZM217.815 87.4733C217.815 89.2672 218.185 90.6744 218.927 91.6949C219.668 92.7047 220.699 93.2096 222.02 93.2096C223.342 93.2096 224.367 92.694 225.098 91.6627C225.839 90.6315 226.21 89.1222 226.21 87.1349C226.21 85.3732 225.828 83.9767 225.066 82.9454C224.314 81.9142 223.288 81.3986 221.988 81.3986C220.71 81.3986 219.695 81.9088 218.943 82.9293C218.191 83.9391 217.815 85.4537 217.815 87.4733ZM239.084 88.5367L237.344 90.3253V96.0133H233.428V71.2633H237.344V85.5397L238.569 84.0089L243.386 78.5787H248.092L241.614 85.8458L248.784 96.0133H244.257L239.084 88.5367Z" fill="#868686"/>
    <path d="M106.659 130.013H103.706V112.951H106.659V130.013ZM119.034 130.013H116.187V117.334H119.034V130.013ZM116.011 114.041C116.011 113.603 116.148 113.24 116.421 112.951C116.702 112.662 117.101 112.517 117.616 112.517C118.132 112.517 118.531 112.662 118.812 112.951C119.093 113.24 119.234 113.603 119.234 114.041C119.234 114.47 119.093 114.83 118.812 115.119C118.531 115.4 118.132 115.541 117.616 115.541C117.101 115.541 116.702 115.4 116.421 115.119C116.148 114.83 116.011 114.47 116.011 114.041ZM124.788 117.334L124.87 118.798C125.808 117.666 127.038 117.099 128.562 117.099C131.202 117.099 132.546 118.611 132.593 121.634V130.013H129.745V121.798C129.745 120.994 129.57 120.4 129.218 120.017C128.874 119.627 128.308 119.431 127.519 119.431C126.37 119.431 125.515 119.951 124.952 120.99V130.013H122.105V117.334H124.788ZM138.148 117.334L138.23 118.798C139.167 117.666 140.398 117.099 141.921 117.099C144.562 117.099 145.906 118.611 145.952 121.634V130.013H143.105V121.798C143.105 120.994 142.929 120.4 142.577 120.017C142.234 119.627 141.667 119.431 140.878 119.431C139.73 119.431 138.874 119.951 138.312 120.99V130.013H135.464V117.334H138.148ZM154.448 130.248C152.644 130.248 151.179 129.681 150.054 128.548C148.937 127.408 148.378 125.892 148.378 124.002V123.65C148.378 122.384 148.62 121.255 149.105 120.263C149.597 119.263 150.284 118.486 151.167 117.931C152.05 117.377 153.034 117.099 154.12 117.099C155.847 117.099 157.179 117.65 158.116 118.752C159.062 119.853 159.534 121.412 159.534 123.427V124.576H151.249C151.335 125.623 151.683 126.451 152.292 127.06C152.909 127.67 153.683 127.974 154.613 127.974C155.917 127.974 156.98 127.447 157.8 126.392L159.335 127.857C158.827 128.615 158.148 129.205 157.296 129.627C156.452 130.041 155.503 130.248 154.448 130.248ZM154.109 119.384C153.327 119.384 152.695 119.658 152.21 120.205C151.734 120.752 151.429 121.513 151.296 122.49H156.722V122.279C156.659 121.326 156.406 120.607 155.96 120.123C155.515 119.63 154.898 119.384 154.109 119.384Z" fill="#656565"/>
    <path d="M168.472 23.9703C168.472 24.8063 168.327 25.5406 168.038 26.1735C167.749 26.8024 167.335 27.2867 166.796 27.6266C166.261 27.9625 165.644 28.1305 164.945 28.1305C164.253 28.1305 163.636 27.9625 163.093 27.6266C162.554 27.2867 162.136 26.8043 161.839 26.1793C161.546 25.5543 161.398 24.8336 161.394 24.0172V23.5367C161.394 22.7047 161.54 21.9703 161.833 21.3336C162.13 20.6969 162.546 20.2106 163.081 19.8746C163.62 19.5348 164.238 19.3649 164.933 19.3649C165.628 19.3649 166.243 19.5328 166.779 19.8688C167.318 20.2008 167.734 20.6813 168.027 21.3102C168.32 21.9352 168.468 22.6637 168.472 23.4957V23.9703ZM166.99 23.525C166.99 22.5797 166.81 21.8551 166.45 21.3512C166.095 20.8473 165.589 20.5953 164.933 20.5953C164.292 20.5953 163.79 20.8473 163.427 21.3512C163.068 21.8512 162.884 22.5602 162.876 23.4781V23.9703C162.876 24.9078 163.058 25.6324 163.421 26.1442C163.788 26.6559 164.296 26.9117 164.945 26.9117C165.601 26.9117 166.105 26.6617 166.456 26.1617C166.812 25.6617 166.99 24.9313 166.99 23.9703V23.525ZM175.363 24.9078C175.363 25.8883 175.14 26.6715 174.695 27.2574C174.249 27.8395 173.652 28.1305 172.902 28.1305C172.206 28.1305 171.65 27.902 171.232 27.4449V30.4508H169.808V21.6735H171.12L171.179 22.318C171.597 21.8102 172.165 21.5563 172.884 21.5563C173.657 21.5563 174.263 21.8453 174.7 22.4235C175.142 22.9977 175.363 23.7965 175.363 24.8199V24.9078ZM173.945 24.7848C173.945 24.152 173.818 23.65 173.564 23.2789C173.314 22.9078 172.954 22.7223 172.486 22.7223C171.904 22.7223 171.486 22.9625 171.232 23.443V26.2555C171.49 26.7477 171.911 26.9938 172.497 26.9938C172.95 26.9938 173.304 26.8121 173.558 26.4489C173.816 26.0817 173.945 25.527 173.945 24.7848ZM179.365 28.1305C178.462 28.1305 177.73 27.8473 177.167 27.2809C176.609 26.7106 176.329 25.9528 176.329 25.0074V24.8317C176.329 24.1989 176.45 23.6344 176.693 23.1383C176.939 22.6383 177.282 22.2496 177.724 21.9723C178.165 21.6949 178.657 21.5563 179.2 21.5563C180.064 21.5563 180.73 21.8317 181.198 22.3824C181.671 22.9332 181.907 23.7125 181.907 24.7203V25.2946H177.765C177.808 25.818 177.982 26.2321 178.286 26.5367C178.595 26.8414 178.982 26.9938 179.447 26.9938C180.099 26.9938 180.63 26.7301 181.04 26.2028L181.808 26.9352C181.554 27.3141 181.214 27.609 180.788 27.8199C180.366 28.027 179.892 28.1305 179.365 28.1305ZM179.195 22.6989C178.804 22.6989 178.488 22.8356 178.245 23.109C178.007 23.3824 177.855 23.7633 177.788 24.2516H180.501V24.1461C180.47 23.6696 180.343 23.3102 180.12 23.068C179.898 22.8219 179.589 22.6989 179.195 22.6989ZM184.339 21.6735L184.38 22.4059C184.849 21.8395 185.464 21.5563 186.226 21.5563C187.546 21.5563 188.218 22.3121 188.241 23.8239V28.0133H186.818V23.9059C186.818 23.5035 186.73 23.2067 186.554 23.0153C186.382 22.8199 186.099 22.7223 185.704 22.7223C185.13 22.7223 184.702 22.9821 184.421 23.5016V28.0133H182.997V21.6735H184.339ZM199.515 25.9039L200.827 19.4821H202.298L200.329 28.0133H198.911L197.288 21.7848L195.63 28.0133H194.206L192.238 19.4821H193.708L195.032 25.8922L196.661 19.4821H197.904L199.515 25.9039ZM205.849 28.1305C204.947 28.1305 204.214 27.8473 203.652 27.2809C203.093 26.7106 202.814 25.9528 202.814 25.0074V24.8317C202.814 24.1989 202.935 23.6344 203.177 23.1383C203.423 22.6383 203.767 22.2496 204.208 21.9723C204.65 21.6949 205.142 21.5563 205.685 21.5563C206.548 21.5563 207.214 21.8317 207.683 22.3824C208.156 22.9332 208.392 23.7125 208.392 24.7203V25.2946H204.249C204.292 25.818 204.466 26.2321 204.771 26.5367C205.079 26.8414 205.466 26.9938 205.931 26.9938C206.583 26.9938 207.115 26.7301 207.525 26.2028L208.292 26.9352C208.038 27.3141 207.698 27.609 207.273 27.8199C206.851 28.027 206.376 28.1305 205.849 28.1305ZM205.679 22.6989C205.288 22.6989 204.972 22.8356 204.73 23.109C204.491 23.3824 204.339 23.7633 204.273 24.2516H206.986V24.1461C206.954 23.6696 206.827 23.3102 206.605 23.068C206.382 22.8219 206.073 22.6989 205.679 22.6989ZM213.29 28.0133C213.228 27.8922 213.173 27.6949 213.126 27.4215C212.673 27.8942 212.118 28.1305 211.462 28.1305C210.825 28.1305 210.306 27.9489 209.904 27.5856C209.501 27.2223 209.3 26.7731 209.3 26.2379C209.3 25.5621 209.55 25.0446 210.05 24.6852C210.554 24.3219 211.273 24.1403 212.206 24.1403H213.079V23.7242C213.079 23.3961 212.988 23.1344 212.804 22.9391C212.62 22.7399 212.341 22.6403 211.966 22.6403C211.642 22.6403 211.376 22.7223 211.169 22.8864C210.962 23.0465 210.859 23.2516 210.859 23.5016H209.435C209.435 23.1539 209.55 22.8297 209.781 22.5289C210.011 22.2242 210.323 21.986 210.718 21.8141C211.116 21.6422 211.56 21.5563 212.048 21.5563C212.79 21.5563 213.382 21.7438 213.823 22.1188C214.265 22.4899 214.491 23.0133 214.503 23.6891V26.5485C214.503 27.1188 214.583 27.5739 214.743 27.9137V28.0133H213.29ZM211.726 26.9879C212.007 26.9879 212.271 26.9196 212.517 26.7828C212.767 26.6461 212.954 26.4625 213.079 26.2321V25.0367H212.312C211.784 25.0367 211.388 25.1285 211.122 25.3121C210.857 25.4957 210.724 25.7555 210.724 26.0914C210.724 26.3649 210.814 26.5836 210.993 26.7477C211.177 26.9078 211.421 26.9879 211.726 26.9879ZM217.779 20.1324V21.6735H218.898V22.7281H217.779V26.2672C217.779 26.5094 217.825 26.6852 217.919 26.7946C218.017 26.9 218.189 26.9528 218.435 26.9528C218.599 26.9528 218.765 26.9332 218.933 26.8942V27.9957C218.609 28.0856 218.296 28.1305 217.995 28.1305C216.902 28.1305 216.355 27.527 216.355 26.3199V22.7281H215.312V21.6735H216.355V20.1324H217.779ZM221.394 22.3649C221.859 21.8258 222.447 21.5563 223.157 21.5563C224.509 21.5563 225.195 22.3278 225.214 23.8707V28.0133H223.79V23.9235C223.79 23.486 223.695 23.1774 223.503 22.9977C223.316 22.8141 223.038 22.7223 222.671 22.7223C222.101 22.7223 221.675 22.9762 221.394 23.484V28.0133H219.97V19.0133H221.394V22.3649ZM229.45 28.1305C228.548 28.1305 227.816 27.8473 227.253 27.2809C226.695 26.7106 226.415 25.9528 226.415 25.0074V24.8317C226.415 24.1989 226.536 23.6344 226.779 23.1383C227.025 22.6383 227.368 22.2496 227.81 21.9723C228.251 21.6949 228.743 21.5563 229.286 21.5563C230.15 21.5563 230.816 21.8317 231.284 22.3824C231.757 22.9332 231.993 23.7125 231.993 24.7203V25.2946H227.851C227.894 25.818 228.068 26.2321 228.372 26.5367C228.681 26.8414 229.068 26.9938 229.532 26.9938C230.185 26.9938 230.716 26.7301 231.126 26.2028L231.894 26.9352C231.64 27.3141 231.3 27.609 230.874 27.8199C230.452 28.027 229.978 28.1305 229.45 28.1305ZM229.281 22.6989C228.89 22.6989 228.573 22.8356 228.331 23.109C228.093 23.3824 227.941 23.7633 227.874 24.2516H230.587V24.1461C230.556 23.6696 230.429 23.3102 230.206 23.068C229.984 22.8219 229.675 22.6989 229.281 22.6989ZM236.423 22.9742C236.236 22.943 236.042 22.9274 235.843 22.9274C235.191 22.9274 234.751 23.1774 234.525 23.6774V28.0133H233.101V21.6735H234.46L234.495 22.3824C234.839 21.8317 235.316 21.5563 235.925 21.5563C236.128 21.5563 236.296 21.5836 236.429 21.6383L236.423 22.9742ZM242.37 19.4821L244.831 26.0211L247.286 19.4821H249.202V28.0133H247.726V25.2008L247.872 21.4391L245.353 28.0133H244.292L241.779 21.4449L241.925 25.2008V28.0133H240.448V19.4821H242.37ZM254.611 28.0133C254.548 27.8922 254.493 27.6949 254.447 27.4215C253.993 27.8942 253.439 28.1305 252.782 28.1305C252.146 28.1305 251.626 27.9489 251.224 27.5856C250.822 27.2223 250.62 26.7731 250.62 26.2379C250.62 25.5621 250.87 25.0446 251.37 24.6852C251.874 24.3219 252.593 24.1403 253.527 24.1403H254.4V23.7242C254.4 23.3961 254.308 23.1344 254.124 22.9391C253.941 22.7399 253.661 22.6403 253.286 22.6403C252.962 22.6403 252.697 22.7223 252.49 22.8864C252.282 23.0465 252.179 23.2516 252.179 23.5016H250.755C250.755 23.1539 250.87 22.8297 251.101 22.5289C251.331 22.2242 251.644 21.986 252.038 21.8141C252.437 21.6422 252.88 21.5563 253.368 21.5563C254.111 21.5563 254.702 21.7438 255.144 22.1188C255.585 22.4899 255.812 23.0133 255.823 23.6891V26.5485C255.823 27.1188 255.904 27.5739 256.064 27.9137V28.0133H254.611ZM253.046 26.9879C253.327 26.9879 253.591 26.9196 253.837 26.7828C254.087 26.6461 254.275 26.4625 254.4 26.2321V25.0367H253.632C253.105 25.0367 252.708 25.1285 252.443 25.3121C252.177 25.4957 252.044 25.7555 252.044 26.0914C252.044 26.3649 252.134 26.5836 252.314 26.7477C252.497 26.9078 252.741 26.9879 253.046 26.9879ZM262.866 24.9078C262.866 25.8883 262.644 26.6715 262.198 27.2574C261.753 27.8395 261.156 28.1305 260.406 28.1305C259.71 28.1305 259.154 27.902 258.736 27.4449V30.4508H257.312V21.6735H258.624L258.683 22.318C259.101 21.8102 259.669 21.5563 260.388 21.5563C261.161 21.5563 261.767 21.8453 262.204 22.4235C262.646 22.9977 262.866 23.7965 262.866 24.8199V24.9078ZM261.448 24.7848C261.448 24.152 261.322 23.65 261.068 23.2789C260.818 22.9078 260.458 22.7223 259.99 22.7223C259.407 22.7223 258.99 22.9625 258.736 23.443V26.2555C258.993 26.7477 259.415 26.9938 260.001 26.9938C260.454 26.9938 260.808 26.8121 261.062 26.4489C261.32 26.0817 261.448 25.527 261.448 24.7848Z" fill="#323232"/>
    <path d="M28.801 159.796H24.6702V168.013H20.9641V146.685H28.4641C30.925 146.685 32.8245 147.237 34.1624 148.34C35.5002 149.444 36.1692 151.041 36.1692 153.13C36.1692 154.556 35.8225 155.753 35.1292 156.719C34.4456 157.676 33.4885 158.414 32.2581 158.931L37.0481 167.823V168.013H33.0784L28.801 159.796ZM24.6702 156.822H28.4788C29.7288 156.822 30.7053 156.509 31.4084 155.884C32.1116 155.25 32.4631 154.385 32.4631 153.292C32.4631 152.149 32.136 151.265 31.4817 150.64C30.8372 150.015 29.8704 149.693 28.5813 149.673H24.6702V156.822ZM46.3206 168.306C44.0647 168.306 42.2336 167.598 40.8274 166.182C39.4309 164.756 38.7327 162.862 38.7327 160.499V160.059C38.7327 158.477 39.0354 157.066 39.6409 155.826C40.2561 154.576 41.1155 153.604 42.219 152.911C43.3225 152.217 44.553 151.871 45.9104 151.871C48.0686 151.871 49.7336 152.559 50.9055 153.936C52.0872 155.313 52.678 157.261 52.678 159.781V161.216H42.3215C42.429 162.525 42.8635 163.56 43.6252 164.322C44.3967 165.084 45.3635 165.464 46.5256 165.464C48.1565 165.464 49.4846 164.805 50.51 163.487L52.429 165.318C51.7942 166.265 50.9446 167.003 49.8801 167.53C48.8254 168.047 47.6389 168.306 46.3206 168.306ZM45.8958 154.727C44.9192 154.727 44.1282 155.069 43.5227 155.753C42.927 156.436 42.5461 157.388 42.3801 158.609H49.1624V158.345C49.0842 157.154 48.7668 156.255 48.2102 155.65C47.6536 155.035 46.8821 154.727 45.8958 154.727ZM72.0725 161.07C71.8577 163.345 71.0178 165.123 69.553 166.402C68.0881 167.672 66.1399 168.306 63.7083 168.306C62.009 168.306 60.51 167.906 59.2112 167.105C57.9221 166.295 56.926 165.147 56.2229 163.663C55.5198 162.178 55.1536 160.455 55.1243 158.492V156.5C55.1243 154.488 55.4807 152.715 56.1936 151.182C56.9065 149.649 57.927 148.467 59.2551 147.637C60.593 146.807 62.136 146.392 63.884 146.392C66.2375 146.392 68.1321 147.032 69.5676 148.311C71.0032 149.59 71.8381 151.397 72.0725 153.731H68.3811C68.2053 152.198 67.7561 151.094 67.0334 150.421C66.3206 149.737 65.2708 149.395 63.884 149.395C62.2727 149.395 61.0325 149.986 60.1633 151.168C59.304 152.339 58.8645 154.063 58.845 156.339V158.228C58.845 160.533 59.2551 162.291 60.0754 163.502C60.9055 164.713 62.1165 165.318 63.7083 165.318C65.1633 165.318 66.2571 164.991 66.9895 164.337C67.7219 163.682 68.1858 162.593 68.3811 161.07H72.0725ZM84.5237 168.013C84.3674 167.711 84.2307 167.217 84.1135 166.534C82.9807 167.715 81.594 168.306 79.9534 168.306C78.3616 168.306 77.0627 167.852 76.0569 166.944C75.051 166.036 74.5481 164.913 74.5481 163.575C74.5481 161.885 75.1731 160.591 76.4231 159.693C77.6829 158.785 79.4797 158.331 81.8137 158.331H83.9963V157.291C83.9963 156.47 83.7668 155.816 83.3079 155.328C82.8489 154.83 82.1506 154.581 81.2131 154.581C80.4026 154.581 79.7385 154.786 79.2209 155.196C78.7034 155.596 78.4446 156.109 78.4446 156.734H74.885C74.885 155.865 75.1731 155.054 75.7493 154.302C76.3254 153.541 77.1067 152.945 78.093 152.515C79.0891 152.086 80.1975 151.871 81.4182 151.871C83.2737 151.871 84.7532 152.339 85.8567 153.277C86.9602 154.205 87.5266 155.513 87.5559 157.203V164.351C87.5559 165.777 87.7561 166.915 88.1565 167.764V168.013H84.5237ZM80.6125 165.45C81.3157 165.45 81.9749 165.279 82.5901 164.937C83.2151 164.595 83.6838 164.136 83.9963 163.56V160.572H82.0774C80.759 160.572 79.7678 160.801 79.1038 161.26C78.4397 161.719 78.1077 162.369 78.1077 163.209C78.1077 163.892 78.3323 164.439 78.7815 164.849C79.2405 165.25 79.8508 165.45 80.6125 165.45ZM105.163 160.25C105.163 162.701 104.607 164.659 103.493 166.124C102.38 167.579 100.886 168.306 99.011 168.306C97.2727 168.306 95.8811 167.735 94.8362 166.592V174.107H91.2766V152.164H94.5579L94.7043 153.775C95.7493 152.505 97.1702 151.871 98.967 151.871C100.901 151.871 102.414 152.593 103.508 154.039C104.612 155.474 105.163 157.471 105.163 160.03V160.25ZM101.618 159.942C101.618 158.36 101.301 157.105 100.666 156.177C100.041 155.25 99.1428 154.786 97.9709 154.786C96.5159 154.786 95.4709 155.386 94.8362 156.588V163.619C95.4807 164.849 96.5354 165.464 98.0002 165.464C99.1331 165.464 100.017 165.01 100.652 164.102C101.296 163.184 101.618 161.797 101.618 159.942ZM112.649 148.311V152.164H115.447V154.8H112.649V163.648C112.649 164.254 112.766 164.693 113 164.966C113.244 165.23 113.674 165.362 114.289 165.362C114.699 165.362 115.115 165.313 115.534 165.215V167.969C114.724 168.194 113.943 168.306 113.191 168.306C110.456 168.306 109.089 166.797 109.089 163.78V154.8H106.482V152.164H109.089V148.311H112.649ZM124.69 165.464C125.578 165.464 126.316 165.206 126.902 164.688C127.488 164.171 127.8 163.531 127.839 162.769H131.194C131.155 163.755 130.847 164.678 130.271 165.538C129.695 166.387 128.913 167.061 127.927 167.559C126.941 168.057 125.876 168.306 124.734 168.306C122.517 168.306 120.759 167.589 119.46 166.153C118.161 164.717 117.512 162.735 117.512 160.206V159.839C117.512 157.427 118.156 155.499 119.446 154.053C120.735 152.598 122.492 151.871 124.719 151.871C126.604 151.871 128.137 152.422 129.319 153.526C130.51 154.62 131.135 156.06 131.194 157.847H127.839C127.8 156.939 127.488 156.192 126.902 155.606C126.325 155.02 125.588 154.727 124.69 154.727C123.537 154.727 122.649 155.147 122.024 155.987C121.399 156.817 121.081 158.082 121.072 159.781V160.352C121.072 162.071 121.379 163.355 121.994 164.205C122.619 165.045 123.518 165.464 124.69 165.464ZM137.39 153.892C138.552 152.545 140.022 151.871 141.799 151.871C145.178 151.871 146.892 153.799 146.941 157.657V168.013H143.381V157.789C143.381 156.695 143.142 155.923 142.663 155.474C142.195 155.015 141.501 154.786 140.583 154.786C139.157 154.786 138.093 155.421 137.39 156.69V168.013H133.83V145.513H137.39V153.892ZM160.022 168.013C159.865 167.711 159.729 167.217 159.612 166.534C158.479 167.715 157.092 168.306 155.451 168.306C153.86 168.306 152.561 167.852 151.555 166.944C150.549 166.036 150.046 164.913 150.046 163.575C150.046 161.885 150.671 160.591 151.921 159.693C153.181 158.785 154.978 158.331 157.312 158.331H159.494V157.291C159.494 156.47 159.265 155.816 158.806 155.328C158.347 154.83 157.649 154.581 156.711 154.581C155.901 154.581 155.237 154.786 154.719 155.196C154.201 155.596 153.943 156.109 153.943 156.734H150.383C150.383 155.865 150.671 155.054 151.247 154.302C151.823 153.541 152.605 152.945 153.591 152.515C154.587 152.086 155.696 151.871 156.916 151.871C158.772 151.871 160.251 152.339 161.355 153.277C162.458 154.205 163.025 155.513 163.054 157.203V164.351C163.054 165.777 163.254 166.915 163.655 167.764V168.013H160.022ZM156.111 165.45C156.814 165.45 157.473 165.279 158.088 164.937C158.713 164.595 159.182 164.136 159.494 163.56V160.572H157.575C156.257 160.572 155.266 160.801 154.602 161.26C153.938 161.719 153.606 162.369 153.606 163.209C153.606 163.892 153.83 164.439 154.28 164.849C154.739 165.25 155.349 165.45 156.111 165.45Z" fill="#D3D3D3"/>
  </g>
</svg>
